<svg xmlns="http://www.w3.org/2000/svg" width="25" height="32" viewBox="0 0 25 32">
    <g fill="none" fill-rule="nonzero">
        <path fill="#FBAF19" d="M12.647 31.486c-.422 0-.823-.18-1.105-.494C10.39 29.715.297 18.316.297 11.93.524 5.277 5.983 0 12.64 0s12.117 5.277 12.343 11.93c0 6.386-10.092 17.785-11.245 19.062-.278.31-.674.49-1.09.494zm0-28.93a9.384 9.384 0 0 0-9.373 9.374c0 3.964 6.003 11.839 9.373 15.803 3.374-3.964 9.374-11.842 9.374-15.803a9.384 9.384 0 0 0-9.374-9.374z"/>
        <path fill="#DBDFE6" d="M12.647 18.441a6.773 6.773 0 1 1 6.773-6.772 6.798 6.798 0 0 1-6.773 6.772zm0-10.568a3.796 3.796 0 1 0 2.694 1.105 3.8 3.8 0 0 0-2.694-1.109v.004z"/>
    </g>
</svg>
