<svg xmlns="http://www.w3.org/2000/svg" width="37" height="33" viewBox="0 0 37 33">
    <g fill="#353A47" fill-rule="nonzero">
        <path stroke="#353A47" d="M34.85 1.16L14.12 22.298l-7.929-8.725a.734.734 0 0 0-.974-.071c-.278.213-.278.71-.07.993l8.487 9.292c.139.142.278.213.486.213.21 0 .348-.07.487-.213L35.823 2.153c.278-.284.209-.78-.07-.993a.72.72 0 0 0-.904 0z"/>
        <path d="M5.88 33h19.24c3.261 0 5.88-2.619 5.88-5.88V16.485c0-.32-.214-.534-.534-.534-.321 0-.535.214-.535.534v10.637a4.79 4.79 0 0 1-4.81 4.81H5.879a4.79 4.79 0 0 1-4.81-4.81V7.879a4.79 4.79 0 0 1 4.81-4.81h17.264c.32 0 .535-.214.535-.535 0-.32-.214-.534-.535-.534H5.88A5.862 5.862 0 0 0 0 7.88v19.24C0 30.382 2.619 33 5.88 33z"/>
    </g>
</svg>
