<?xml version="1.0" encoding="UTF-8"?>
<svg width="197px" height="52px" viewBox="0 0 197 52" version="1.1" xmlns="http://www.w3.org/2000/svg" xmlns:xlink="http://www.w3.org/1999/xlink">
    <!-- Generator: Sketch 61.2 (89653) - https://sketch.com -->
    <title>Footer Logo</title>
    <desc>Created with Sketch.</desc>
    <defs>
        <polygon id="path-1" points="0.000278082202 0.443541112 25.7086995 0.443541112 25.7086995 27.5329188 0.000278082202 27.5329188"></polygon>
        <polygon id="path-3" points="0.109862333 0.255577406 3.03250627 0.255577406 3.03250627 3.1780823 0.109862333 3.1780823"></polygon>
        <polygon id="path-5" points="0 34.8793805 25.7086995 34.8793805 25.7086995 0.562646367 0 0.562646367"></polygon>
    </defs>
    <g id="Page-1" stroke="none" stroke-width="1" fill="none" fill-rule="evenodd">
        <g id="QLogistics_LandingPage" transform="translate(-620.000000, -5840.000000)">
            <g id="Footer-Logo" transform="translate(620.000000, 5833.000000)">
                <path d="M3.862,47.656 C4.114,47.656 4.317,47.579 4.471,47.425 C4.625,47.271 4.702,47.068 4.702,46.816 C4.702,46.564 4.625,46.361 4.471,46.207 C4.317,46.053 4.114,45.976 3.862,45.976 C3.61,45.976 3.407,46.053 3.253,46.207 C3.099,46.361 3.022,46.564 3.022,46.816 C3.022,47.068 3.099,47.271 3.253,47.425 C3.407,47.579 3.61,47.656 3.862,47.656 Z M4.422,56 L4.422,49 L3.302,49 L3.302,56 L4.422,56 Z M9.406,56.14 C9.994,56.14 10.5096667,56.0513333 10.953,55.874 C11.3963333,55.6966667 11.737,55.4516667 11.975,55.139 C12.213,54.8263333 12.332,54.4693333 12.332,54.068 C12.332,53.4893333 12.1313333,53.0413333 11.73,52.724 C11.3286667,52.4066667 10.6426667,52.1686667 9.672,52.01 C8.96266667,51.8886667 8.47033333,51.744 8.195,51.576 C7.91966667,51.408 7.782,51.17 7.782,50.862 C7.782,50.5913333 7.94066667,50.3533333 8.258,50.148 C8.57533333,49.9426667 8.96266667,49.84 9.42,49.84 C9.87733333,49.84 10.2576667,49.938 10.561,50.134 C10.8643333,50.33 11.0906667,50.652 11.24,51.1 L11.24,51.1 L12.192,50.54 C11.996,49.9706667 11.6716667,49.5483333 11.219,49.273 C10.7663333,48.9976667 10.1666667,48.86 9.42,48.86 C8.86933333,48.86 8.384,48.9556667 7.964,49.147 C7.544,49.3383333 7.222,49.5926667 6.998,49.91 C6.774,50.2273333 6.662,50.5773333 6.662,50.96 C6.662,51.352 6.75066667,51.681 6.928,51.947 C7.10533333,52.213 7.39,52.4323333 7.782,52.605 C8.174,52.7776667 8.706,52.9246667 9.378,53.046 C10.0593333,53.1673333 10.5353333,53.3096667 10.806,53.473 C11.0766667,53.6363333 11.212,53.8533333 11.212,54.124 C11.212,54.4226667 11.0673333,54.67 10.778,54.866 C10.4886667,55.062 10.0686667,55.16 9.518,55.16 C8.986,55.16 8.524,55.0573333 8.132,54.852 C7.74,54.6466667 7.46466667,54.3386667 7.306,53.928 L7.306,53.928 L6.396,54.558 C6.648,55.0806667 7.04466667,55.475 7.586,55.741 C8.12733333,56.007 8.734,56.14 9.406,56.14 Z M24.568,56.14 C24.8666667,56.14 25.1466667,56.0933333 25.408,56 L25.408,56 L25.478,55.118 C25.2913333,55.1646667 25.1046667,55.188 24.918,55.188 C24.7313333,55.188 24.596,55.146 24.512,55.062 C24.428,54.978 24.386,54.852 24.386,54.684 L24.386,54.684 L24.386,51.24 C24.386,50.456 24.134,49.8633333 23.63,49.462 C23.126,49.0606667 22.4586667,48.86 21.628,48.86 C20.9466667,48.86 20.3516667,49.014 19.843,49.322 C19.3343333,49.63 18.9866667,50.0453333 18.8,50.568 L18.8,50.568 L19.626,51.17 C19.8126667,50.7313333 20.0763333,50.4 20.417,50.176 C20.7576667,49.952 21.1613333,49.84 21.628,49.84 C22.1413333,49.84 22.5426667,49.98 22.832,50.26 C23.1213333,50.54 23.266,50.9133333 23.266,51.38 L23.266,51.38 L23.266,51.772 L21.404,52.08 C20.5173333,52.2293333 19.8406667,52.4976667 19.374,52.885 C18.9073333,53.2723333 18.674,53.732 18.674,54.264 C18.674,54.8706667 18.898,55.335 19.346,55.657 C19.794,55.979 20.3633333,56.14 21.054,56.14 C21.5113333,56.14 21.9476667,56.049 22.363,55.867 C22.7783333,55.685 23.0933333,55.4306667 23.308,55.104 C23.364,55.4773333 23.497,55.7433333 23.707,55.902 C23.917,56.0606667 24.204,56.14 24.568,56.14 Z M21.11,55.16 C20.7086667,55.16 20.396,55.083 20.172,54.929 C19.948,54.775 19.836,54.5533333 19.836,54.264 C19.836,53.9373333 19.99,53.669 20.298,53.459 C20.606,53.249 21.0726667,53.088 21.698,52.976 L21.698,52.976 L23.266,52.682 L23.266,53.648 C23.266,54.096 23.0536667,54.46 22.629,54.74 C22.2043333,55.02 21.698,55.16 21.11,55.16 Z M32.996,58.94 L32.996,54.908 C33.22,55.2813333 33.535,55.58 33.941,55.804 C34.347,56.028 34.8066667,56.14 35.32,56.14 C36.3,56.14 37.077,55.8156667 37.651,55.167 C38.225,54.5183333 38.512,53.6293333 38.512,52.5 C38.512,51.3706667 38.225,50.4816667 37.651,49.833 C37.077,49.1843333 36.3,48.86 35.32,48.86 C34.7786667,48.86 34.2956667,48.9836667 33.871,49.231 C33.4463333,49.4783333 33.1313333,49.8073333 32.926,50.218 L32.926,50.218 L32.856,49 L31.876,49 L31.876,58.94 L32.996,58.94 Z M35.194,55.16 C34.522,55.16 33.9876667,54.9266667 33.591,54.46 C33.1943333,53.9933333 32.996,53.368 32.996,52.584 L32.996,52.584 L32.996,52.416 C32.996,51.632 33.1943333,51.0066667 33.591,50.54 C33.9876667,50.0733333 34.522,49.84 35.194,49.84 C35.8753333,49.84 36.412,50.0803333 36.804,50.561 C37.196,51.0416667 37.392,51.688 37.392,52.5 C37.392,53.312 37.196,53.9583333 36.804,54.439 C36.412,54.9196667 35.8753333,55.16 35.194,55.16 Z M41.816,56 L41.816,52.22 C41.816,51.7253333 41.907,51.303 42.089,50.953 C42.271,50.603 42.5043333,50.3416667 42.789,50.169 C43.0736667,49.9963333 43.3653333,49.91 43.664,49.91 C44.028,49.91 44.322,49.9706667 44.546,50.092 L44.546,50.092 L44.77,49 C44.5926667,48.9066667 44.336,48.86 44,48.86 C42.8986667,48.86 42.152,49.2893333 41.76,50.148 L41.76,50.148 L41.606,49 L40.696,49 L40.696,56 L41.816,56 Z M49.362,56.14 C50.4166667,56.14 51.245,55.818 51.847,55.174 C52.449,54.53 52.75,53.6386667 52.75,52.5 C52.75,51.3613333 52.449,50.47 51.847,49.826 C51.245,49.182 50.4166667,48.86 49.362,48.86 C48.3073333,48.86 47.479,49.182 46.877,49.826 C46.275,50.47 45.974,51.3613333 45.974,52.5 C45.974,53.6386667 46.275,54.53 46.877,55.174 C47.479,55.818 48.3073333,56.14 49.362,56.14 Z M49.362,55.174 C48.6526667,55.174 48.0973333,54.936 47.696,54.46 C47.2946667,53.984 47.094,53.3306667 47.094,52.5 C47.094,51.6693333 47.2946667,51.016 47.696,50.54 C48.0973333,50.064 48.6526667,49.826 49.362,49.826 C50.0713333,49.826 50.6266667,50.064 51.028,50.54 C51.4293333,51.016 51.63,51.6693333 51.63,52.5 C51.63,53.3306667 51.4293333,53.984 51.028,54.46 C50.6266667,54.936 50.0713333,55.174 49.362,55.174 Z M57.692,56.14 C58.2333333,56.14 58.7163333,56.0163333 59.141,55.769 C59.5656667,55.5216667 59.8806667,55.1926667 60.086,54.782 L60.086,54.782 L60.156,56 L61.136,56 L61.136,45.78 L60.016,45.78 L60.016,50.092 C59.792,49.7186667 59.477,49.42 59.071,49.196 C58.665,48.972 58.2053333,48.86 57.692,48.86 C56.712,48.86 55.935,49.1843333 55.361,49.833 C54.787,50.4816667 54.5,51.3706667 54.5,52.5 C54.5,53.6293333 54.787,54.5183333 55.361,55.167 C55.935,55.8156667 56.712,56.14 57.692,56.14 Z M57.818,55.16 C57.1366667,55.16 56.6,54.9196667 56.208,54.439 C55.816,53.9583333 55.62,53.312 55.62,52.5 C55.62,51.688 55.816,51.0416667 56.208,50.561 C56.6,50.0803333 57.1366667,49.84 57.818,49.84 C58.49,49.84 59.0243333,50.0733333 59.421,50.54 C59.8176667,51.0066667 60.016,51.632 60.016,52.416 L60.016,52.416 L60.016,52.584 C60.016,53.368 59.8176667,53.9933333 59.421,54.46 C59.0243333,54.9266667 58.49,55.16 57.818,55.16 Z M66.246,56.14 C67.45,56.14 68.2853333,55.7386667 68.752,54.936 L68.752,54.936 L68.822,56 L69.802,56 L69.802,49 L68.682,49 L68.682,52.808 C68.682,53.592 68.4696667,54.18 68.045,54.572 C67.6203333,54.964 67.086,55.16 66.442,55.16 C65.9006667,55.16 65.49,55.0176667 65.21,54.733 C64.93,54.4483333 64.79,53.9653333 64.79,53.284 L64.79,53.284 L64.79,49 L63.67,49 L63.67,53.578 C63.67,54.446 63.9103333,55.09 64.391,55.51 C64.8716667,55.93 65.49,56.14 66.246,56.14 Z M75.36,56.14 C76.088,56.14 76.704,55.9603333 77.208,55.601 C77.712,55.2416667 78.0853333,54.7353333 78.328,54.082 L78.328,54.082 L77.292,53.718 C77.1893333,54.1846667 76.9723333,54.5416667 76.641,54.789 C76.3096667,55.0363333 75.8733333,55.16 75.332,55.16 C74.632,55.16 74.0836667,54.9243333 73.687,54.453 C73.2903333,53.9816667 73.092,53.3306667 73.092,52.5 C73.092,51.6693333 73.2903333,51.0183333 73.687,50.547 C74.0836667,50.0756667 74.632,49.84 75.332,49.84 C76.2746667,49.84 76.8953333,50.302 77.194,51.226 L77.194,51.226 L78.258,50.722 C77.9873333,50.1246667 77.6116667,49.665 77.131,49.343 C76.6503333,49.021 76.06,48.86 75.36,48.86 C74.3053333,48.86 73.477,49.182 72.875,49.826 C72.273,50.47 71.972,51.3613333 71.972,52.5 C71.972,53.6386667 72.273,54.53 72.875,55.174 C73.477,55.818 74.3053333,56.14 75.36,56.14 Z M82.78,56.14 C83.5173333,56.14 84.1193333,55.93 84.586,55.51 L84.586,55.51 L84.194,54.572 C83.8486667,54.9173333 83.452,55.09 83.004,55.09 C82.6866667,55.09 82.4323333,55.0036667 82.241,54.831 C82.0496667,54.6583333 81.954,54.404 81.954,54.068 L81.954,54.068 L81.954,49.966 L84.544,49.966 L84.544,49 L81.954,49 L81.954,47.012 L80.834,47.32 L80.834,49 L79.434,49 L79.434,49.966 L80.834,49.966 L80.834,54.264 C80.8433333,54.8986667 81.0276667,55.37 81.387,55.678 C81.7463333,55.986 82.2106667,56.14 82.78,56.14 Z M93.896,56.14 C94.9506667,56.14 95.779,55.818 96.381,55.174 C96.983,54.53 97.284,53.6386667 97.284,52.5 C97.284,51.3613333 96.983,50.47 96.381,49.826 C95.779,49.182 94.9506667,48.86 93.896,48.86 C92.8413333,48.86 92.013,49.182 91.411,49.826 C90.809,50.47 90.508,51.3613333 90.508,52.5 C90.508,53.6386667 90.809,54.53 91.411,55.174 C92.013,55.818 92.8413333,56.14 93.896,56.14 Z M93.896,55.174 C93.1866667,55.174 92.6313333,54.936 92.23,54.46 C91.8286667,53.984 91.628,53.3306667 91.628,52.5 C91.628,51.6693333 91.8286667,51.016 92.23,50.54 C92.6313333,50.064 93.1866667,49.826 93.896,49.826 C94.6053333,49.826 95.1606667,50.064 95.562,50.54 C95.9633333,51.016 96.164,51.6693333 96.164,52.5 C96.164,53.3306667 95.9633333,53.984 95.562,54.46 C95.1606667,54.936 94.6053333,55.174 93.896,55.174 Z M101.12,56 L101.12,49.966 L103.458,49.966 L103.458,49 L101.12,49 L101.12,47.936 C101.12,47.1333333 101.544667,46.732 102.394,46.732 C102.702,46.732 102.968,46.802 103.192,46.942 L103.192,46.942 L103.486,46.032 C103.364667,45.9293333 103.199,45.85 102.989,45.794 C102.779,45.738 102.548,45.71 102.296,45.71 C101.549333,45.71 100.98,45.9013333 100.588,46.284 C100.196,46.6666667 100,47.18 100,47.824 L100,47.824 L100,49 L98.6,49 L98.6,49.966 L100,49.966 L100,56 L101.12,56 Z M115.904,58.73 C116.268,58.73 116.646,58.674 117.038,58.562 C117.43,58.45 117.733333,58.3006667 117.948,58.114 L117.948,58.114 L117.584,57.078 C117.406667,57.2366667 117.173333,57.3626667 116.884,57.456 C116.594667,57.5493333 116.277333,57.596 115.932,57.596 C115.418667,57.596 115.005667,57.4933333 114.693,57.288 C114.380333,57.0826667 114.200667,56.6906667 114.154,56.112 C114.928667,56.0466667 115.600667,55.811 116.17,55.405 C116.739333,54.999 117.178,54.453 117.486,53.767 C117.794,53.081 117.948,52.2853333 117.948,51.38 C117.948,50.4093333 117.773,49.567 117.423,48.853 C117.073,48.139 116.576,47.5883333 115.932,47.201 C115.288,46.8136667 114.532,46.62 113.664,46.62 C112.796,46.62 112.04,46.8136667 111.396,47.201 C110.752,47.5883333 110.255,48.139 109.905,48.853 C109.555,49.567 109.38,50.4093333 109.38,51.38 C109.38,52.2853333 109.531667,53.081 109.835,53.767 C110.138333,54.453 110.572333,54.9966667 111.137,55.398 C111.701667,55.7993333 112.371333,56.0373333 113.146,56.112 C113.202,57.0453333 113.484333,57.715 113.993,58.121 C114.501667,58.527 115.138667,58.73 115.904,58.73 Z M113.664,55.09 C112.702667,55.09 111.944333,54.761 111.389,54.103 C110.833667,53.445 110.556,52.5373333 110.556,51.38 C110.556,50.2226667 110.833667,49.315 111.389,48.657 C111.944333,47.999 112.702667,47.67 113.664,47.67 C114.625333,47.67 115.383667,47.999 115.939,48.657 C116.494333,49.315 116.772,50.2226667 116.772,51.38 C116.772,52.5373333 116.494333,53.445 115.939,54.103 C115.383667,54.761 114.625333,55.09 113.664,55.09 Z M120.762,47.656 C121.014,47.656 121.217,47.579 121.371,47.425 C121.525,47.271 121.602,47.068 121.602,46.816 C121.602,46.564 121.525,46.361 121.371,46.207 C121.217,46.053 121.014,45.976 120.762,45.976 C120.51,45.976 120.307,46.053 120.153,46.207 C119.999,46.361 119.922,46.564 119.922,46.816 C119.922,47.068 119.999,47.271 120.153,47.425 C120.307,47.579 120.51,47.656 120.762,47.656 Z M121.322,56 L121.322,49 L120.202,49 L120.202,56 L121.322,56 Z M125.046,56 L125.046,52.262 C125.046,51.7206667 125.148667,51.268 125.354,50.904 C125.559333,50.54 125.820667,50.2716667 126.138,50.099 C126.455333,49.9263333 126.782,49.84 127.118,49.84 C127.612667,49.84 128.011667,49.987 128.315,50.281 C128.618333,50.575 128.77,51.0253333 128.77,51.632 L128.77,51.632 L128.77,56 L129.89,56 L129.89,52.164 C129.89,51.6786667 129.985667,51.261 130.177,50.911 C130.368333,50.561 130.620333,50.295 130.933,50.113 C131.245667,49.931 131.588667,49.84 131.962,49.84 C132.456667,49.84 132.855667,49.987 133.159,50.281 C133.462333,50.575 133.614,51.0253333 133.614,51.632 L133.614,51.632 L133.614,56 L134.734,56 L134.734,51.52 C134.734,50.932 134.608,50.4373333 134.356,50.036 C134.104,49.6346667 133.775,49.3383333 133.369,49.147 C132.963,48.9556667 132.526667,48.86 132.06,48.86 C131.574667,48.86 131.098667,48.9766667 130.632,49.21 C130.165333,49.4433333 129.829333,49.784 129.624,50.232 C129.4,49.784 129.071,49.4433333 128.637,49.21 C128.203,48.9766667 127.729333,48.86 127.216,48.86 C126.758667,48.86 126.331667,48.9626667 125.935,49.168 C125.538333,49.3733333 125.218667,49.6813333 124.976,50.092 L124.976,50.092 L124.906,49 L123.926,49 L123.926,56 L125.046,56 Z M137.828,47.656 C138.08,47.656 138.283,47.579 138.437,47.425 C138.591,47.271 138.668,47.068 138.668,46.816 C138.668,46.564 138.591,46.361 138.437,46.207 C138.283,46.053 138.08,45.976 137.828,45.976 C137.576,45.976 137.373,46.053 137.219,46.207 C137.065,46.361 136.988,46.564 136.988,46.816 C136.988,47.068 137.065,47.271 137.219,47.425 C137.373,47.579 137.576,47.656 137.828,47.656 Z M138.388,56 L138.388,49 L137.268,49 L137.268,56 L138.388,56 Z M146.382,56.14 C146.680667,56.14 146.960667,56.0933333 147.222,56 L147.222,56 L147.292,55.118 C147.105333,55.1646667 146.918667,55.188 146.732,55.188 C146.545333,55.188 146.41,55.146 146.326,55.062 C146.242,54.978 146.2,54.852 146.2,54.684 L146.2,54.684 L146.2,51.24 C146.2,50.456 145.948,49.8633333 145.444,49.462 C144.94,49.0606667 144.272667,48.86 143.442,48.86 C142.760667,48.86 142.165667,49.014 141.657,49.322 C141.148333,49.63 140.800667,50.0453333 140.614,50.568 L140.614,50.568 L141.44,51.17 C141.626667,50.7313333 141.890333,50.4 142.231,50.176 C142.571667,49.952 142.975333,49.84 143.442,49.84 C143.955333,49.84 144.356667,49.98 144.646,50.26 C144.935333,50.54 145.08,50.9133333 145.08,51.38 L145.08,51.38 L145.08,51.772 L143.218,52.08 C142.331333,52.2293333 141.654667,52.4976667 141.188,52.885 C140.721333,53.2723333 140.488,53.732 140.488,54.264 C140.488,54.8706667 140.712,55.335 141.16,55.657 C141.608,55.979 142.177333,56.14 142.868,56.14 C143.325333,56.14 143.761667,56.049 144.177,55.867 C144.592333,55.685 144.907333,55.4306667 145.122,55.104 C145.178,55.4773333 145.311,55.7433333 145.521,55.902 C145.731,56.0606667 146.018,56.14 146.382,56.14 Z M142.924,55.16 C142.522667,55.16 142.21,55.083 141.986,54.929 C141.762,54.775 141.65,54.5533333 141.65,54.264 C141.65,53.9373333 141.804,53.669 142.112,53.459 C142.42,53.249 142.886667,53.088 143.512,52.976 L143.512,52.976 L145.08,52.682 L145.08,53.648 C145.08,54.096 144.867667,54.46 144.443,54.74 C144.018333,55.02 143.512,55.16 142.924,55.16 Z M157.624,56.14 C158.314667,56.14 158.905,56.021 159.395,55.783 C159.885,55.545 160.265333,55.202 160.536,54.754 L160.536,54.754 L160.578,56 L161.418,56 L161.418,51.338 L157.456,51.338 L157.456,52.388 L160.396,52.388 L160.396,52.71 C160.396,53.4753333 160.141667,54.0633333 159.633,54.474 C159.124333,54.8846667 158.468667,55.09 157.666,55.09 C156.648667,55.09 155.869333,54.7656667 155.328,54.117 C154.786667,53.4683333 154.516,52.556 154.516,51.38 C154.516,50.6146667 154.646667,49.9543333 154.908,49.399 C155.169333,48.8436667 155.535667,48.4166667 156.007,48.118 C156.478333,47.8193333 157.026667,47.67 157.652,47.67 C158.305333,47.67 158.863,47.81 159.325,48.09 C159.787,48.37 160.120667,48.7713333 160.326,49.294 L160.326,49.294 L161.348,48.734 C160.984,48.0153333 160.505667,47.4833333 159.913,47.138 C159.320333,46.7926667 158.566667,46.62 157.652,46.62 C156.793333,46.62 156.039667,46.8136667 155.391,47.201 C154.742333,47.5883333 154.238333,48.1413333 153.879,48.86 C153.519667,49.5786667 153.34,50.4186667 153.34,51.38 C153.34,52.3506667 153.515,53.193 153.865,53.907 C154.215,54.621 154.712,55.1716667 155.356,55.559 C156,55.9463333 156.756,56.14 157.624,56.14 Z M164.946,56 L164.946,52.22 C164.946,51.7253333 165.037,51.303 165.219,50.953 C165.401,50.603 165.634333,50.3416667 165.919,50.169 C166.203667,49.9963333 166.495333,49.91 166.794,49.91 C167.158,49.91 167.452,49.9706667 167.676,50.092 L167.676,50.092 L167.9,49 C167.722667,48.9066667 167.466,48.86 167.13,48.86 C166.028667,48.86 165.282,49.2893333 164.89,50.148 L164.89,50.148 L164.736,49 L163.826,49 L163.826,56 L164.946,56 Z M172.492,56.14 C173.546667,56.14 174.375,55.818 174.977,55.174 C175.579,54.53 175.88,53.6386667 175.88,52.5 C175.88,51.3613333 175.579,50.47 174.977,49.826 C174.375,49.182 173.546667,48.86 172.492,48.86 C171.437333,48.86 170.609,49.182 170.007,49.826 C169.405,50.47 169.104,51.3613333 169.104,52.5 C169.104,53.6386667 169.405,54.53 170.007,55.174 C170.609,55.818 171.437333,56.14 172.492,56.14 Z M172.492,55.174 C171.782667,55.174 171.227333,54.936 170.826,54.46 C170.424667,53.984 170.224,53.3306667 170.224,52.5 C170.224,51.6693333 170.424667,51.016 170.826,50.54 C171.227333,50.064 171.782667,49.826 172.492,49.826 C173.201333,49.826 173.756667,50.064 174.158,50.54 C174.559333,51.016 174.76,51.6693333 174.76,52.5 C174.76,53.3306667 174.559333,53.984 174.158,54.46 C173.756667,54.936 173.201333,55.174 172.492,55.174 Z M180.556,56.14 C181.76,56.14 182.595333,55.7386667 183.062,54.936 L183.062,54.936 L183.132,56 L184.112,56 L184.112,49 L182.992,49 L182.992,52.808 C182.992,53.592 182.779667,54.18 182.355,54.572 C181.930333,54.964 181.396,55.16 180.752,55.16 C180.210667,55.16 179.8,55.0176667 179.52,54.733 C179.24,54.4483333 179.1,53.9653333 179.1,53.284 L179.1,53.284 L179.1,49 L177.98,49 L177.98,53.578 C177.98,54.446 178.220333,55.09 178.701,55.51 C179.181667,55.93 179.8,56.14 180.556,56.14 Z M187.836,58.94 L187.836,54.908 C188.06,55.2813333 188.375,55.58 188.781,55.804 C189.187,56.028 189.646667,56.14 190.16,56.14 C191.14,56.14 191.917,55.8156667 192.491,55.167 C193.065,54.5183333 193.352,53.6293333 193.352,52.5 C193.352,51.3706667 193.065,50.4816667 192.491,49.833 C191.917,49.1843333 191.14,48.86 190.16,48.86 C189.618667,48.86 189.135667,48.9836667 188.711,49.231 C188.286333,49.4783333 187.971333,49.8073333 187.766,50.218 L187.766,50.218 L187.696,49 L186.716,49 L186.716,58.94 L187.836,58.94 Z M190.034,55.16 C189.362,55.16 188.827667,54.9266667 188.431,54.46 C188.034333,53.9933333 187.836,53.368 187.836,52.584 L187.836,52.584 L187.836,52.416 C187.836,51.632 188.034333,51.0066667 188.431,50.54 C188.827667,50.0733333 189.362,49.84 190.034,49.84 C190.715333,49.84 191.252,50.0803333 191.644,50.561 C192.036,51.0416667 192.232,51.688 192.232,52.5 C192.232,53.312 192.036,53.9583333 191.644,54.439 C191.252,54.9196667 190.715333,55.16 190.034,55.16 Z M196.096,56.14 C196.366667,56.14 196.586,56.056 196.754,55.888 C196.922,55.72 197.006,55.5006667 197.006,55.23 C197.006,54.9593333 196.922,54.74 196.754,54.572 C196.586,54.404 196.366667,54.32 196.096,54.32 C195.825333,54.32 195.606,54.404 195.438,54.572 C195.27,54.74 195.186,54.9593333 195.186,55.23 C195.186,55.5006667 195.27,55.72 195.438,55.888 C195.606,56.056 195.825333,56.14 196.096,56.14 Z" id="isaproductofQimiaGroup." fill="#1C212B" fill-rule="nonzero"></path>
                <g id="Logo">
                    <path d="M51.4121023,33 L51.4121023,27.9680364 L41.44749,27.9680364 L41.44749,9.42922291 L35.2237455,9.42922291 L35.2237455,33 L51.4121023,33 Z M64.6541119,33.2648402 C66.5079932,33.2648402 68.1246219,32.9062024 69.5039979,32.1889269 C70.8833739,31.4716514 71.9482522,30.4564307 72.6986327,29.1432647 C73.4490132,27.8300988 73.8242035,26.2796801 73.8242035,24.4920088 C73.8242035,22.7043375 73.4490132,21.1539189 72.6986327,19.840753 C71.9482522,18.527587 70.8833739,17.5123663 69.5039979,16.7950908 C68.1246219,16.0778152 66.5079932,15.7191775 64.6541119,15.7191775 C62.7781605,15.7191775 61.1449793,16.0722977 59.7545683,16.7785382 C58.3641573,17.4847788 57.2937615,18.4999995 56.543381,19.8242004 C55.7930004,21.1484014 55.4178102,22.7043375 55.4178102,24.4920088 C55.4178102,26.2796801 55.7930004,27.8356163 56.543381,29.1598172 C57.2937615,30.4840182 58.3641573,31.4992389 59.7545683,32.2054794 C61.1449793,32.9117199 62.7781605,33.2648402 64.6541119,33.2648402 Z M64.6541119,28.795662 C63.5506111,28.795662 62.7229855,28.4480592 62.1712351,27.7528537 C61.6194847,27.0576482 61.3436095,25.9706999 61.3436095,24.4920088 C61.3436095,23.0353878 61.6194847,21.9594745 62.1712351,21.264269 C62.7229855,20.5690635 63.5506111,20.2214607 64.6541119,20.2214607 C65.7355427,20.2214607 66.5466157,20.5690635 67.0873311,21.264269 C67.6280465,21.9594745 67.8984042,23.0353878 67.8984042,24.4920088 C67.8984042,27.3611109 66.8169734,28.795662 64.6541119,28.795662 Z M87.0993181,40.4155254 C90.2994705,40.4155254 92.7271722,39.6927324 94.3824234,38.2471463 C96.0376746,36.8015603 96.8653002,34.6993912 96.8653002,31.9406392 L96.8653002,31.9406392 L96.8653002,16.1826478 L90.9063959,16.1826478 L90.9063959,18.3013693 C90.3987855,17.5068488 89.68151,16.8778533 88.7545693,16.414383 C87.8276287,15.9509126 86.8013729,15.7191775 85.6758021,15.7191775 C84.2412511,15.7191775 82.9556726,16.0722977 81.8190668,16.7785382 C80.682461,17.4847788 79.7941428,18.472412 79.1541124,19.7414379 C78.5140819,21.0104638 78.1940667,22.4726024 78.1940667,24.1278536 C78.1940667,25.8051748 78.5140819,27.2783484 79.1541124,28.5473743 C79.7941428,29.8164002 80.682461,30.7985159 81.8190668,31.4937214 C82.9556726,32.1889269 84.2412511,32.5365297 85.6758021,32.5365297 C86.7351629,32.5365297 87.7338311,32.2827245 88.6718068,31.7751141 C89.6097825,31.2675037 90.3546455,30.6495433 90.9063959,29.9212328 L90.9063959,29.9212328 L90.9063959,32.4041096 C90.9063959,33.6400305 90.5808632,34.5504186 89.9297977,35.135274 C89.2787322,35.7201295 88.269029,36.0125572 86.900688,36.0125572 C85.9737473,36.0125572 84.9861141,35.8856546 83.9377883,35.6318494 C82.8894626,35.3780442 81.8687243,35.0304415 80.8755736,34.5890412 L80.8755736,34.5890412 L79.981738,38.9589043 C81.9901094,39.929985 84.3626362,40.4155254 87.0993181,40.4155254 Z M87.5296834,28.0673514 C86.4923927,28.0673514 85.6647671,27.7142312 85.0468066,27.0079907 C84.4288462,26.3017501 84.119866,25.3417044 84.119866,24.1278536 C84.119866,22.9140027 84.4233287,21.964992 85.0302541,21.2808215 C85.6371796,20.596651 86.4703227,20.2545658 87.5296834,20.2545658 C88.5890442,20.2545658 89.4166698,20.6021685 90.0125602,21.297374 C90.6084507,21.9925795 90.9063959,22.9360727 90.9063959,24.1278536 C90.9063959,25.3637745 90.6084507,26.3293377 90.0125602,27.0245432 C89.4166698,27.7197487 88.5890442,28.0673514 87.5296834,28.0673514 Z M108.783109,13.3356157 L108.783109,7.93949683 L102.526259,7.93949683 L102.526259,13.3356157 L108.783109,13.3356157 Z M108.683794,33 L108.683794,16.1826478 L102.691784,16.1826478 L102.691784,33 L108.683794,33 Z M121.363018,33.2648402 C123.68037,33.2648402 125.495628,32.7903348 126.808794,31.8413242 C128.12196,30.8923135 128.778543,29.5901825 128.778543,27.9349313 C128.778543,26.5445203 128.386801,25.446537 127.603315,24.6409814 C126.819829,23.8354259 125.534251,23.2229829 123.74658,22.8036526 L123.74658,22.8036526 L120.932653,22.1746572 C120.314692,22.020167 119.895362,21.8711944 119.674662,21.7277393 C119.453962,21.5842842 119.343612,21.3911716 119.343612,21.1484014 C119.343612,20.7511411 119.531207,20.4476784 119.906397,20.2380132 C120.281587,20.0283481 120.800233,19.9235155 121.462333,19.9235155 C122.278924,19.9235155 123.150689,20.0780056 124.07763,20.3869859 C125.004571,20.6959661 125.909441,21.1373664 126.792242,21.7111868 L126.792242,21.7111868 L128.381283,17.7385839 C127.366062,17.0985535 126.273597,16.6019781 125.103886,16.2488579 C123.934175,15.8957376 122.742394,15.7191775 121.528543,15.7191775 C120.049852,15.7191775 118.742204,15.9564301 117.605598,16.4309355 C116.468992,16.9054408 115.580674,17.5620238 114.940643,18.4006844 C114.300613,19.239345 113.980598,20.1993907 113.980598,21.2808215 C113.980598,22.6270925 114.361305,23.6809357 115.122721,24.4423513 C115.884136,25.2037668 117.125575,25.7610348 118.847036,26.114155 L118.847036,26.114155 L121.561648,26.7431505 C122.334099,26.8976406 122.858262,27.0686832 123.134137,27.2562783 C123.410012,27.4438735 123.54795,27.6921612 123.54795,28.0011414 C123.54795,28.3542616 123.360354,28.6301368 122.985164,28.828767 C122.609974,29.0273971 122.080293,29.1267122 121.396123,29.1267122 C120.292622,29.1267122 119.167051,28.9556696 118.019411,28.6135843 C116.87177,28.2714991 115.845514,27.7914762 114.940643,27.1735158 L114.940643,27.1735158 L113.417812,31.2454337 C115.359974,32.5917047 118.008376,33.2648402 121.363018,33.2648402 Z M141.921238,33.2648402 C143.179229,33.2648402 144.21652,33.0993151 145.03311,32.7682648 L145.03311,32.7682648 L145.03311,28.2328765 C144.37101,28.3652966 143.841329,28.4315067 143.444069,28.4315067 C142.737828,28.4315067 142.147456,28.227359 141.67295,27.8190637 C141.198445,27.4107684 140.961192,26.8093605 140.961192,26.0148399 L140.961192,26.0148399 L140.961192,20.585616 L145.000005,20.585616 L145.000005,16.1826478 L140.961192,16.1826478 L140.961192,10.4554787 L134.969183,12.37557 L134.969183,16.1826478 L131.824206,16.1826478 L131.824206,20.585616 L134.969183,20.585616 L134.969183,26.0148399 C134.969183,28.2880516 135.559556,30.0646879 136.740302,31.3447488 C137.921047,32.6248097 139.648026,33.2648402 141.921238,33.2648402 Z M155.692928,13.3356157 L155.692928,7.93949683 L149.436078,7.93949683 L149.436078,13.3356157 L155.692928,13.3356157 Z M155.593613,33 L155.593613,16.1826478 L149.601603,16.1826478 L149.601603,33 L155.593613,33 Z M169.828773,33.2648402 C171.197114,33.2648402 172.482693,33.0882801 173.685508,32.7351598 C174.888324,32.3820396 175.853887,31.8854642 176.582198,31.2454337 L176.582198,31.2454337 L175.059367,27.1735158 C174.463476,27.6590561 173.773788,28.0452814 172.990303,28.3321916 C172.206817,28.6191018 171.450919,28.7625569 170.722609,28.7625569 C169.464618,28.7625569 168.504572,28.4039192 167.842472,27.6866436 C167.180371,26.9693681 166.849321,25.9044899 166.849321,24.4920088 C166.849321,23.1015978 167.180371,22.0532721 167.842472,21.3470316 C168.504572,20.640791 169.453583,20.2876708 170.689504,20.2876708 C171.417814,20.2876708 172.17923,20.4311259 172.97375,20.7180361 C173.768271,21.0049463 174.463476,21.3911716 175.059367,21.8767119 L175.059367,21.8767119 L176.582198,17.7385839 C175.875957,17.1206235 174.926947,16.6295656 173.735166,16.2654104 C172.543385,15.9012551 171.329534,15.7191775 170.093613,15.7191775 C168.239732,15.7191775 166.606551,16.0888502 165.19407,16.8281958 C163.781589,17.5675413 162.683605,18.6103496 161.90012,19.9566205 C161.116634,21.3028915 160.724891,22.8588276 160.724891,24.6244289 C160.724891,27.2949009 161.530447,29.4025874 163.141558,30.9474885 C164.752669,32.4923896 166.981741,33.2648402 169.828773,33.2648402 Z M187.639276,33.2648402 C189.956628,33.2648402 191.771886,32.7903348 193.085052,31.8413242 C194.398218,30.8923135 195.054801,29.5901825 195.054801,27.9349313 C195.054801,26.5445203 194.663059,25.446537 193.879573,24.6409814 C193.096087,23.8354259 191.810509,23.2229829 190.022838,22.8036526 L190.022838,22.8036526 L187.208911,22.1746572 C186.59095,22.020167 186.17162,21.8711944 185.95092,21.7277393 C185.73022,21.5842842 185.61987,21.3911716 185.61987,21.1484014 C185.61987,20.7511411 185.807465,20.4476784 186.182655,20.2380132 C186.557845,20.0283481 187.076491,19.9235155 187.738591,19.9235155 C188.555182,19.9235155 189.426947,20.0780056 190.353888,20.3869859 C191.280829,20.6959661 192.185699,21.1373664 193.0685,21.7111868 L193.0685,21.7111868 L194.657541,17.7385839 C193.64232,17.0985535 192.549855,16.6019781 191.380144,16.2488579 C190.210433,15.8957376 189.018652,15.7191775 187.804801,15.7191775 C186.32611,15.7191775 185.018462,15.9564301 183.881856,16.4309355 C182.74525,16.9054408 181.856932,17.5620238 181.216901,18.4006844 C180.576871,19.239345 180.256856,20.1993907 180.256856,21.2808215 C180.256856,22.6270925 180.637563,23.6809357 181.398979,24.4423513 C182.160395,25.2037668 183.401833,25.7610348 185.123294,26.114155 L185.123294,26.114155 L187.837906,26.7431505 C188.610357,26.8976406 189.13452,27.0686832 189.410395,27.2562783 C189.68627,27.4438735 189.824208,27.6921612 189.824208,28.0011414 C189.824208,28.3542616 189.636612,28.6301368 189.261422,28.828767 C188.886232,29.0273971 188.356552,29.1267122 187.672381,29.1267122 C186.56888,29.1267122 185.443309,28.9556696 184.295669,28.6135843 C183.148028,28.2714991 182.121772,27.7914762 181.216901,27.1735158 L181.216901,27.1735158 L179.69407,31.2454337 C181.636232,32.5917047 184.284634,33.2648402 187.639276,33.2648402 Z" id="Logistics" fill="#1C212B" fill-rule="nonzero"></path>
                    <g id="Group-9" transform="translate(0.000000, 7.448630)">
                        <g id="Group-3" transform="translate(0.000000, 0.119105)">
                            <mask id="mask-2" fill="white">
                                <use xlink:href="#path-1"></use>
                            </mask>
                            <g id="Clip-2"></g>
                            <path d="M21.7157172,0.443541112 L3.9935385,0.443541112 C1.79112746,0.443541112 0.000278082202,2.23439049 0.000278082202,4.43680153 L0.000278082202,23.5396584 C0.000278082202,25.7420694 1.79112746,27.5329188 3.9935385,27.5329188 L10.703662,27.5329188 L10.703662,23.2309871 L4.30360015,23.2309871 L4.30360015,4.74825359 L21.4056556,4.74825359 L21.4084364,23.2309871 L15.0069841,23.2309871 L15.0069841,27.5329188 L21.7157172,27.5329188 C23.9181282,27.5329188 25.7089776,25.7420694 25.7089776,23.5396584 L25.7089776,4.43680153 C25.7089776,2.23439049 23.9181282,0.443541112 21.7157172,0.443541112" id="Fill-1" fill="#1C212B" mask="url(#mask-2)"></path>
                        </g>
                        <g id="Group-6" transform="translate(14.897261, 31.701298)">
                            <mask id="mask-4" fill="white">
                                <use xlink:href="#path-3"></use>
                            </mask>
                            <g id="Clip-5"></g>
                            <polygon id="Fill-4" fill="#1C212B" mask="url(#mask-4)" points="0.729985642 0.255577406 0.729985642 0.875700716 0.729985642 0.255577406 0.109862333 0.255577406 0.109862333 3.17822135 3.03250627 3.17822135 3.03250627 0.255577406"></polygon>
                        </g>
                        <mask id="mask-6" fill="white">
                            <use xlink:href="#path-5"></use>
                        </mask>
                        <g id="Clip-8"></g>
                        <polygon id="Fill-7" fill="#1C212B" mask="url(#mask-6)" points="10.7033839 31.9567365 15.006706 31.9567365 15.006706 27.652024 10.7033839 27.652024"></polygon>
                    </g>
                </g>
            </g>
        </g>
    </g>
</svg>