<?xml version="1.0" encoding="UTF-8"?>
<svg width="194px" height="46px" viewBox="0 0 194 46" version="1.1" xmlns="http://www.w3.org/2000/svg" xmlns:xlink="http://www.w3.org/1999/xlink">
    <!-- Generator: Sketch 60.1 (88133) - https://sketch.com -->
    <title>Footer Logo</title>
    <desc>Created with Sketch.</desc>
    <defs>
        <polygon id="path-1" points="0.0002352 0.375144 21.74424 0.375144 21.74424 23.287152 0.0002352 23.287152"></polygon>
        <polygon id="path-3" points="0.0929208 0.2161656 2.5648728 0.2161656 2.5648728 2.688 0.0929208 2.688"></polygon>
        <polygon id="path-5" points="0 29.5007384 21.74424 29.5007384 21.74424 0.4758824 0 0.4758824"></polygon>
    </defs>
    <g id="Page-1" stroke="none" stroke-width="1" fill="none" fill-rule="evenodd">
        <g id="QLogistics_LandingPage" transform="translate(-623.000000, -5845.000000)">
            <g id="Footer-Logo" transform="translate(622.000000, 5845.000000)">
                <path d="M44.26,22 L44.26,18.444 L35.356,18.444 L35.356,2.064 L30.988,2.064 L30.988,22 L44.26,22 Z M56.916,22.252 C58.8946666,22.252 60.612,21.8366667 62.068,21.006 C63.524,20.1753333 64.644,18.9853333 65.428,17.436 C66.212,15.8866667 66.604,14.076 66.604,12.004 C66.604,9.932 66.212,8.13066667 65.428,6.6 C64.644,5.06933333 63.524,3.88866667 62.068,3.058 C60.612,2.22733333 58.8946666,1.812 56.916,1.812 C54.9373333,1.812 53.2153333,2.22733333 51.75,3.058 C50.2846666,3.88866667 49.1553333,5.06933333 48.362,6.6 C47.5686666,8.13066667 47.172,9.932 47.172,12.004 C47.172,14.076 47.5686666,15.8866667 48.362,17.436 C49.1553333,18.9853333 50.2846666,20.1753333 51.75,21.006 C53.2153333,21.8366667 54.9373333,22.252 56.916,22.252 Z M56.916,18.836 C55.236,18.836 53.9246666,18.2526667 52.982,17.086 C52.0393333,15.9193333 51.568,14.2253333 51.568,12.004 C51.568,9.80133333 52.0393333,8.12133333 52.982,6.964 C53.9246666,5.80666667 55.236,5.228 56.916,5.228 C58.596,5.228 59.9073333,5.80666667 60.85,6.964 C61.7926666,8.12133333 62.264,9.80133333 62.264,12.004 C62.264,14.2066667 61.7926666,15.896 60.85,17.072 C59.9073333,18.248 58.596,18.836 56.916,18.836 Z M81.6959999,22.252 C83.0586666,22.252 84.3886666,22.1213333 85.6859999,21.86 C86.9833333,21.5986667 88.1173333,21.2346667 89.0879999,20.768 L89.0879999,20.768 L89.0879999,10.996 L81.2479999,10.996 L81.2479999,14.048 L85.1679999,14.048 L85.1679999,18.444 C84.0666666,18.724 82.9653333,18.864 81.8639999,18.864 C77.8506666,18.864 75.8439999,16.5773333 75.8439999,12.004 C75.8439999,7.524 77.7666666,5.284 81.6119999,5.284 C82.6386666,5.284 83.5906666,5.43333333 84.4679999,5.732 C85.3453333,6.03066667 86.2506666,6.516 87.1839999,7.188 L87.1839999,7.188 L88.5839999,4.052 C87.7813333,3.34266667 86.7593333,2.792 85.5179999,2.4 C84.2766666,2.008 82.9373333,1.812 81.4999999,1.812 C79.4653333,1.812 77.6873333,2.22733333 76.1659999,3.058 C74.6446666,3.88866667 73.4686666,5.06933333 72.6379999,6.6 C71.8073333,8.13066667 71.3919999,9.932 71.3919999,12.004 C71.3919999,14.132 71.8073333,15.9613333 72.6379999,17.492 C73.4686666,19.0226667 74.6586666,20.1986667 76.2079999,21.02 C77.7573333,21.8413333 79.5866666,22.252 81.6959999,22.252 Z M99.1679999,22 L99.1679999,2.064 L94.7999999,2.064 L94.7999999,22 L99.1679999,22 Z M112.104,22.252 C114.698667,22.252 116.724,21.706 118.18,20.614 C119.636,19.522 120.364,18.0426667 120.364,16.176 C120.364,14.6266667 119.799333,13.404 118.67,12.508 C117.540667,11.612 115.697333,10.884 113.14,10.324 C112.038667,10.1 111.189333,9.87133333 110.592,9.638 C109.994667,9.40466667 109.57,9.13866667 109.318,8.84 C109.066,8.54133333 108.94,8.168 108.94,7.72 C108.94,6.95466667 109.276,6.348 109.948,5.9 C110.62,5.452 111.516,5.228 112.636,5.228 C114.745333,5.228 116.677333,5.9 118.432,7.244 L118.432,7.244 L119.832,4.108 C119.048,3.39866667 118.002667,2.83866667 116.696,2.428 C115.389333,2.01733333 114.026667,1.812 112.608,1.812 C111.04,1.812 109.658667,2.078 108.464,2.61 C107.269333,3.142 106.340667,3.884 105.678,4.836 C105.015333,5.788 104.684,6.86133333 104.684,8.056 C104.684,9.15733333 104.922,10.0766667 105.398,10.814 C105.874,11.5513333 106.63,12.1766667 107.666,12.69 C108.702,13.2033333 110.097333,13.6373333 111.852,13.992 C113.42,14.328 114.516667,14.678 115.142,15.042 C115.767333,15.406 116.08,15.9053333 116.08,16.54 C116.08,17.268 115.739333,17.8326667 115.058,18.234 C114.376667,18.6353333 113.401333,18.836 112.132,18.836 C109.761333,18.836 107.614667,18.164 105.692,16.82 L105.692,16.82 L104.292,19.956 C105.206667,20.684 106.359333,21.2486667 107.75,21.65 C109.140667,22.0513333 110.592,22.252 112.104,22.252 Z M134.084,22 L134.084,5.62 L140.328,5.62 L140.328,2.064 L123.416,2.064 L123.416,5.62 L129.66,5.62 L129.66,22 L134.084,22 Z M148.98,22 L148.98,2.064 L144.612,2.064 L144.612,22 L148.98,22 Z M164.296,22.252 C165.621333,22.252 166.886,22.0513333 168.09,21.65 C169.294,21.2486667 170.278666,20.684 171.044,19.956 L171.044,19.956 L169.672,16.82 C168.776,17.492 167.903333,17.982 167.054,18.29 C166.204666,18.598 165.313333,18.752 164.38,18.752 C162.588,18.752 161.216,18.178 160.264,17.03 C159.312,15.882 158.836,14.2066667 158.836,12.004 C158.836,9.82 159.312,8.15866667 160.264,7.02 C161.216,5.88133333 162.588,5.312 164.38,5.312 C165.313333,5.312 166.204666,5.466 167.054,5.774 C167.903333,6.082 168.776,6.572 169.672,7.244 L169.672,7.244 L171.044,4.108 C170.278666,3.38 169.294,2.81533333 168.09,2.414 C166.886,2.01266667 165.621333,1.812 164.296,1.812 C162.28,1.812 160.520666,2.232 159.018,3.072 C157.515333,3.912 156.362666,5.102 155.56,6.642 C154.757333,8.182 154.356,9.96933333 154.356,12.004 C154.356,14.0573333 154.757333,15.854 155.56,17.394 C156.362666,18.934 157.515333,20.1286667 159.018,20.978 C160.520666,21.8273333 162.28,22.252 164.296,22.252 Z M182.636,22.252 C185.230666,22.252 187.256,21.706 188.712,20.614 C190.168,19.522 190.896,18.0426667 190.896,16.176 C190.896,14.6266667 190.331333,13.404 189.202,12.508 C188.072666,11.612 186.229333,10.884 183.672,10.324 C182.570666,10.1 181.721333,9.87133333 181.124,9.638 C180.526666,9.40466667 180.102,9.13866667 179.85,8.84 C179.598,8.54133333 179.472,8.168 179.472,7.72 C179.472,6.95466667 179.808,6.348 180.48,5.9 C181.152,5.452 182.048,5.228 183.168,5.228 C185.277333,5.228 187.209333,5.9 188.964,7.244 L188.964,7.244 L190.364,4.108 C189.58,3.39866667 188.534666,2.83866667 187.228,2.428 C185.921333,2.01733333 184.558666,1.812 183.14,1.812 C181.572,1.812 180.190666,2.078 178.996,2.61 C177.801333,3.142 176.872666,3.884 176.21,4.836 C175.547333,5.788 175.216,6.86133333 175.216,8.056 C175.216,9.15733333 175.454,10.0766667 175.93,10.814 C176.406,11.5513333 177.162,12.1766667 178.198,12.69 C179.234,13.2033333 180.629333,13.6373333 182.384,13.992 C183.952,14.328 185.048666,14.678 185.674,15.042 C186.299333,15.406 186.612,15.9053333 186.612,16.54 C186.612,17.268 186.271333,17.8326667 185.59,18.234 C184.908666,18.6353333 183.933333,18.836 182.664,18.836 C180.293333,18.836 178.146666,18.164 176.224,16.82 L176.224,16.82 L174.824,19.956 C175.738666,20.684 176.891333,21.2486667 178.282,21.65 C179.672666,22.0513333 181.124,22.252 182.636,22.252 Z" id="LOGISTICS" fill="#1C212B" fill-rule="nonzero"></path>
                <g id="Group-9" transform="translate(1.000000, 0.000000)">
                    <g id="Group-3" transform="translate(0.000000, 0.100738)">
                        <mask id="mask-2" fill="white">
                            <use xlink:href="#path-1"></use>
                        </mask>
                        <g id="Clip-2"></g>
                        <path d="M18.3670032,0.375144 L3.3777072,0.375144 C1.5149232,0.375144 0.0002352,1.889832 0.0002352,3.752616 L0.0002352,19.90968 C0.0002352,21.772464 1.5149232,23.287152 3.3777072,23.287152 L9.0530832,23.287152 L9.0530832,19.648608 L3.6399552,19.648608 L3.6399552,4.01604 L18.1047552,4.01604 L18.1071072,19.648608 L12.6928032,19.648608 L12.6928032,23.287152 L18.3670032,23.287152 C20.2297872,23.287152 21.7444752,21.772464 21.7444752,19.90968 L21.7444752,3.752616 C21.7444752,1.889832 20.2297872,0.375144 18.3670032,0.375144" id="Fill-1" fill="#1C212B" mask="url(#mask-2)"></path>
                    </g>
                    <g id="Group-6" transform="translate(12.600000, 26.812738)">
                        <mask id="mask-4" fill="white">
                            <use xlink:href="#path-3"></use>
                        </mask>
                        <g id="Clip-5"></g>
                        <polygon id="Fill-4" fill="#1C212B" mask="url(#mask-4)" points="0.6174168 0.2161656 0.6174168 0.7406616 0.6174168 0.2161656 0.0929208 0.2161656 0.0929208 2.6881176 2.5648728 2.6881176 2.5648728 0.2161656"></polygon>
                    </g>
                    <mask id="mask-6" fill="white">
                        <use xlink:href="#path-5"></use>
                    </mask>
                    <g id="Clip-8"></g>
                    <polygon id="Fill-7" fill="#1C212B" mask="url(#mask-6)" points="9.052848 27.0287864 12.692568 27.0287864 12.692568 23.3878904 9.052848 23.3878904"></polygon>
                </g>
                <text id="is-a-product-of-Qimi" font-family="WorkSans-Regular, Work Sans" font-size="14" text-align="center" font-weight="normal" fill="#1C212B">
                    <tspan x="0" y="43">is a product of Qimia Group.</tspan>
                </text>
            </g>
        </g>
    </g>
</svg>