<svg xmlns="http://www.w3.org/2000/svg" width="60" height="97" viewBox="0 0 60 97">
    <g fill="none" fill-rule="nonzero" transform="translate(-1)">
        <path fill="#FBAF19" d="M48.5 25a2.497 2.497 0 0 1-1.767-4.267l8.232-8.232-8.233-8.233a2.497 2.497 0 0 1 0-3.535 2.497 2.497 0 0 1 3.535 0l10 10a2.497 2.497 0 0 1 0 3.535l-10 10a2.493 2.493 0 0 1-1.767.733zM13.5 96.772c-.64 0-1.28-.245-1.768-.732l-10-10a2.497 2.497 0 0 1 0-3.535l10-10a2.497 2.497 0 0 1 3.536 0 2.497 2.497 0 0 1 0 3.535l-8.233 8.232 8.232 8.233a2.497 2.497 0 0 1 0 3.535 2.483 2.483 0 0 1-1.767.732z"/>
        <path fill="#ECEEF2" d="M32.25 51.5h-15C8.29 51.5 1 42.08 1 30.5s7.29-21 16.25-21h6.25c1.38 0 2.5 1.447 2.5 3.23 0 1.784-1.12 3.232-2.5 3.232h-6.25C11.047 15.962 6 22.484 6 30.5s5.047 14.538 11.25 14.538h12.12a1.96 1.96 0 0 1 .38-.038h15C53.71 45 61 54.42 61 66s-7.29 21-16.25 21H38.5c-1.383 0-2.5-1.444-2.5-3.23 0-1.787 1.117-3.232 2.5-3.232h6.25C50.953 80.538 56 74.016 56 66s-5.047-14.538-11.25-14.538H32.632a1.965 1.965 0 0 1-.382.038z"/>
        <circle cx="33.5" cy="12.501" r="2.5" fill="#FBAF19"/>
        <circle cx="43.5" cy="12.501" r="2.5" fill="#FBAF19"/>
        <circle cx="18.5" cy="84.5" r="2.5" fill="#FBAF19"/>
        <circle cx="28.5" cy="84.5" r="2.5" fill="#FBAF19"/>
    </g>
</svg>
