<svg xmlns="http://www.w3.org/2000/svg" width="16" height="15" viewBox="0 0 16 15">
    <path fill="#1C212B" fill-rule="evenodd" d="M3.632 4.879v10.12H.202V4.88h3.43zm8.42-.238C14.307 4.641 16 6.088 16 9.197V15h-3.43V9.585c0-1.36-.496-2.288-1.737-2.288-.948 0-1.512.626-1.76 1.23-.09.216-.113.518-.113.82V15H5.53s.046-9.171 0-10.12h3.43v1.433c.455-.69 1.27-1.672 3.091-1.672zM1.94 0c1.173 0 1.896.756 1.918 1.748 0 .972-.745 1.75-1.94 1.75h-.022C.744 3.498 0 2.72 0 1.748 0 .756.767 0 1.94 0z"/>
</svg>
