<svg xmlns="http://www.w3.org/2000/svg" width="31" height="23" viewBox="0 0 31 23">
    <g fill="none" fill-rule="nonzero">
        <path fill="#FBAF19" d="M1.309 2.548h25.317l-9.783 9.716-1.653-1.63c-.517-.51-1.309-.476-1.826 0-.516.475-.482 1.29 0 1.8l2.55 2.514c.516.51 1.308.51 1.825 0l1.653-1.63 7.2 7.1H9.023a1.3 1.3 0 0 0-1.308 1.291A1.3 1.3 0 0 0 9.024 23h19.393C29.829 23 31 21.845 31 20.452V2.548C31 1.155 29.863 0 28.417 0H1.309A1.3 1.3 0 0 0 0 1.291c0 .713.62 1.257 1.309 1.257zM28.45 18.583l-7.233-7.1 7.233-7.134v14.234z"/>
        <path fill="#DBDFE6" d="M11 9.2V7.8c0-.44-.308-.8-.684-.8H2.684C2.308 7 2 7.36 2 7.8v1.4c0 .44.308.8.684.8h7.632c.376 0 .65-.36.684-.8zM12 16.2v-1.4c0-.44-.335-.8-.745-.8h-5.51c-.41 0-.745.36-.745.8v1.4c0 .44.335.8.745.8h5.473c.41 0 .745-.36.782-.8-.037 0 0 0 0 0z"/>
    </g>
</svg>
