<svg xmlns="http://www.w3.org/2000/svg" width="89" height="99" viewBox="0 0 89 99">
    <g fill="none" fill-rule="nonzero">
        <path fill="#FBAF19" stroke="#1B212C" stroke-width="1.2" d="M83 30.69l-2.78 2.81a40.31 40.31 0 0 1-29.48 64.41c-.92.06-1.833.09-2.74.09a40.15 40.15 0 0 1-29.93-13.29 2.5 2.5 0 0 1 3.71-3.35c12.923 14.306 34.93 15.606 49.448 2.923C85.746 71.599 87.41 49.616 74.97 34.89a2.5 2.5 0 0 1 .14-3.39l4.36-4.36a1.77 1.77 0 0 0-2.5-2.5l-4.53 4.53a2.5 2.5 0 0 1-3.27.23 35.21 35.21 0 0 0-17.18-6.82 2.5 2.5 0 0 1-2.23-2.48v-8.06a2.5 2.5 0 0 1 2.5-2.54h2.29a1.77 1.77 0 0 0 0-3.54H41.43a1.77 1.77 0 0 0 0 3.54h2.29a2.5 2.5 0 0 1 2.5 2.5v8.1A2.5 2.5 0 0 1 44 22.58a35.36 35.36 0 0 0-21.28 10.43 2.507 2.507 0 1 1-3.58-3.51 40.41 40.41 0 0 1 22.08-11.57V14.5A6.77 6.77 0 0 1 41.43 1h13.12a6.77 6.77 0 0 1 .21 13.5v3.39a40.24 40.24 0 0 1 15.63 6.21l3-3a6.77 6.77 0 1 1 9.58 9.57l.03.02z"/>
        <path fill="#FBAF19" stroke="#1B212C" d="M1 44.87a2.5 2.5 0 0 0 2.5 2.5h17.36a2.5 2.5 0 1 0 0-5H3.51a2.5 2.5 0 0 0-2.5 2.49l-.01.01zM29.42 56.99a2.5 2.5 0 0 0-2.5-2.5H9.57a2.5 2.5 0 1 0 0 5h17.35a2.5 2.5 0 0 0 2.5-2.5zM3.51 71.62h17.35a2.5 2.5 0 1 0 0-5H3.51a2.5 2.5 0 1 0 0 5zM61.86 47.34l-6.41 6.41a8.45 8.45 0 1 1-3.54-3.54l6.41-6.41a2.503 2.503 0 0 1 3.54 3.54z"/>
        <path fill="#1C212B" d="M51.42 57.68a3.43 3.43 0 1 0-3.43 3.43 3.44 3.44 0 0 0 3.43-3.43z"/>
        <path fill="#DBDFE6" stroke="#1B212C" d="M47.99 87.43c13.476.021 25.284-9.016 28.785-22.029 3.501-13.013-2.18-26.755-13.847-33.498C51.26 25.16 36.518 27.1 26.99 36.63a2.503 2.503 0 0 0 3.54 3.54 24.77 24.77 0 1 1 0 35 2.503 2.503 0 0 0-3.54 3.54 29.68 29.68 0 0 0 21 8.72z"/>
    </g>
</svg>
