<svg xmlns="http://www.w3.org/2000/svg" xmlns:xlink="http://www.w3.org/1999/xlink" width="1440" height="747" viewBox="0 0 1440 747">
    <defs>
        <path id="a" d="M.587 0h690.817v58H.587z"/>
        <path id="c" d="M0 .996h1440v746H0z"/>
        <path id="e" d="M.127.325h1441v747H.127z"/>
        <path id="h" d="M1308 772l-13.309-184.279-80.495-206.494-2.556-21.741-.64-40.978L1223 225l60-16.5-22.204-56.907L1231 150l8.127-67.891L1244.303 17"/>
        <filter id="g" width="140.3%" height="105.2%" x="-20.1%" y="-2.6%" filterUnits="objectBoundingBox">
            <feMorphology in="SourceAlpha" operator="dilate" radius="1.5" result="shadowSpreadOuter1"/>
            <feOffset in="shadowSpreadOuter1" result="shadowOffsetOuter1"/>
            <feMorphology in="SourceAlpha" radius="1.5" result="shadowInner"/>
            <feOffset in="shadowInner" result="shadowInner"/>
            <feComposite in="shadowOffsetOuter1" in2="shadowInner" operator="out" result="shadowOffsetOuter1"/>
            <feGaussianBlur in="shadowOffsetOuter1" result="shadowBlurOuter1" stdDeviation="6"/>
            <feColorMatrix in="shadowBlurOuter1" values="0 0 0 0 0.984313725 0 0 0 0 0.68627451 0 0 0 0 0.0980392157 0 0 0 1 0"/>
        </filter>
        <path id="j" d="M621.116 768.133L694 478.85l-16.5-13.35-16.9-16.5-13.6-8.684-31-10.816-27-9-25-19.5-34-14-117-7-123.5-115-21.5-17-49.5-19-39.5-16.5-29-32.884L139 145 112 .5"/>
        <filter id="i" width="106.8%" height="105.2%" x="-3.4%" y="-2.6%" filterUnits="objectBoundingBox">
            <feMorphology in="SourceAlpha" operator="dilate" radius="1.5" result="shadowSpreadOuter1"/>
            <feOffset in="shadowSpreadOuter1" result="shadowOffsetOuter1"/>
            <feMorphology in="SourceAlpha" radius="1.5" result="shadowInner"/>
            <feOffset in="shadowInner" result="shadowInner"/>
            <feComposite in="shadowOffsetOuter1" in2="shadowInner" operator="out" result="shadowOffsetOuter1"/>
            <feGaussianBlur in="shadowOffsetOuter1" result="shadowBlurOuter1" stdDeviation="6"/>
            <feColorMatrix in="shadowBlurOuter1" values="0 0 0 0 0.984313725 0 0 0 0 0.68627451 0 0 0 0 0.0980392157 0 0 0 1 0"/>
        </filter>
        <path id="l" d="M1453 359l-120 76-30 17-69 20-115 39-46.93-120.5L1028 283l-164 46-137-14.5L537 290l-113 5-30.76-165.85L384.5 99l-46-94"/>
        <filter id="k" width="103.6%" height="107.9%" x="-1.8%" y="-4%" filterUnits="objectBoundingBox">
            <feMorphology in="SourceAlpha" operator="dilate" radius="1.5" result="shadowSpreadOuter1"/>
            <feOffset in="shadowSpreadOuter1" result="shadowOffsetOuter1"/>
            <feMorphology in="SourceAlpha" radius="1.5" result="shadowInner"/>
            <feOffset in="shadowInner" result="shadowInner"/>
            <feComposite in="shadowOffsetOuter1" in2="shadowInner" operator="out" result="shadowOffsetOuter1"/>
            <feGaussianBlur in="shadowOffsetOuter1" result="shadowBlurOuter1" stdDeviation="6"/>
            <feColorMatrix in="shadowBlurOuter1" values="0 0 0 0 0.984313725 0 0 0 0 0.68627451 0 0 0 0 0.0980392157 0 0 0 1 0"/>
        </filter>
        <path id="n" d="M987 771l-88.023-21L731.5 711l-89.79-20.445-93.955-25.978L565 589l-34-110.2-46.134-42.4L426 420.577l-47-9.311-54-5.133-54.823-107.6L171.287 253 90 208.221l-4-8.088L43 68 30.466 43 0 8.5"/>
        <filter id="m" width="104%" height="105.2%" x="-2%" y="-2.6%" filterUnits="objectBoundingBox">
            <feMorphology in="SourceAlpha" operator="dilate" radius="1.5" result="shadowSpreadOuter1"/>
            <feOffset in="shadowSpreadOuter1" result="shadowOffsetOuter1"/>
            <feMorphology in="SourceAlpha" radius="1.5" result="shadowInner"/>
            <feOffset in="shadowInner" result="shadowInner"/>
            <feComposite in="shadowOffsetOuter1" in2="shadowInner" operator="out" result="shadowOffsetOuter1"/>
            <feGaussianBlur in="shadowOffsetOuter1" result="shadowBlurOuter1" stdDeviation="6"/>
            <feColorMatrix in="shadowBlurOuter1" values="0 0 0 0 0.984313725 0 0 0 0 0.68627451 0 0 0 0 0.0980392157 0 0 0 1 0"/>
        </filter>
        <path id="p" d="M1448 159l-349.439-14.464 11.007-30.607 5.07-13.331L1011 90l-63.111 23.929-26.515-45.925 15.177-23.835L901.5 25l6.71-10"/>
        <filter id="o" width="107.3%" height="127.5%" x="-3.7%" y="-13.9%" filterUnits="objectBoundingBox">
            <feMorphology in="SourceAlpha" operator="dilate" radius="1.5" result="shadowSpreadOuter1"/>
            <feOffset in="shadowSpreadOuter1" result="shadowOffsetOuter1"/>
            <feMorphology in="SourceAlpha" radius="1.5" result="shadowInner"/>
            <feOffset in="shadowInner" result="shadowInner"/>
            <feComposite in="shadowOffsetOuter1" in2="shadowInner" operator="out" result="shadowOffsetOuter1"/>
            <feGaussianBlur in="shadowOffsetOuter1" result="shadowBlurOuter1" stdDeviation="6"/>
            <feColorMatrix in="shadowBlurOuter1" values="0 0 0 0 0.984313725 0 0 0 0 0.68627451 0 0 0 0 0.0980392157 0 0 0 1 0"/>
        </filter>
    </defs>
    <g fill="none" fill-rule="evenodd">
        <path fill="#2D2D2D" d="M485 741h73l-68.65-15z"/>
        <g transform="translate(747.809)">
            <mask id="b" fill="#fff">
                <use xlink:href="#a"/>
            </mask>
            <path fill="#2D2D2D" d="M232.607 24.54c10.433 5.452 47.991 32.108 63.291 31.503 15.3-.607 372.782 1.21 390.17 2.422 1.181.083 3.002.223 5.336.409V-92.67H.587c30.82 10.286 71.154 23.995 76.232 26.943 8.345 4.847 145.358 84.814 155.788 90.267" mask="url(#b)"/>
        </g>
        <g transform="translate(0 .004)">
            <mask id="d" fill="#fff">
                <use xlink:href="#c"/>
            </mask>
            <path fill="#2D2D2D" d="M0 168.085V-87h690.468c42.234 10.168 116 28.17 121.454 31.185 7.67 4.24 152.716 91.478 154.81 92.689 2.092 1.21 49.51 27.261 57.18 29.685 7.673 2.423 265.69 10.905 269.175 10.905 1.684 0 72.745 3.246 146.913 6.74v662.792h-15.464c-22.36-15.559-59.75-40.61-62.062-41.615-3.249-1.41-149.445 16.464-188.972 16.464-39.527 0-130.654-22.35-143.488-30.575l.874 15.634s55.787 24.233 95.535 30.898c39.748 6.664 225.241-3.634 237.794-2.425 3.34.324 9.25 4.95 16.182 11.62H599.65l5.038-16.467-111.083-18.131 11.848-39.909 17.272-8.08v-18.47h-11.957l5.314-9.231 13.287 1.154 14.615-70.408-35.874-105.038-25.244 1.154-7.972-28.855c-7.972-5.77-167.406-38.09-167.406-38.09L266.3 329.68l-21.258-42.708-82.376-36.936-35.872 40.4 6.644 8.079 33.214-27.702 46.502 21.93 31.888 34.628 14.615 56.558 17.272 27.702 74.404 20.777h39.859l6.643 15.005h53.144v32.317l49.16 16.16 17.272 83.106-10.63 54.25-7.971 12.695-18.601-2.307-21.256 79.643v21.93l-2.518 1.79H413.74l-14.578-4.1-1.285 4.1H0V168.084z" mask="url(#d)"/>
        </g>
        <path fill="#424242" d="M144.046 481.555l-40.598-20.698s-53.52 30.044-100.405 53.04v227.428h264.53v-6.874L132.53 545.8l11.516-64.245zM37.785 395.229l-32.352 2.243-2.392-3.224v59.227l47.442-9.209-18.56-31.48 11.235-5.955zM489.44 726.635l-4.35 14.691h72.975zM1402.382 594.42l5.245-.283 7.557 19.387 14.537-4.34-17.065-47.747-13.529 4.587 2.93 13.7-4.56 1.31zM586.462 119.136l-13.398 12.198 29.108 22.358 13.398-11.247zM1201.827 552.325l-19.208 5.814 3.073 9.341 20.37-6.043zM11.565 162.414l.185.202 2.593-6.775H3.041v6.573zM488.29 62.908l14.081-28.035 14.262 4.178 5.956-36.377-34.3 1.464 2.913 11.416-19.347 42.182zM371.625 228.034l-20.474 2.624 2.91 19.205H376.5z"/>
        <path fill="#424242" d="M3.042 189.189v185.49l38.162 10.328 24.419 40.966 138.21-57.429-10.257-27.471-57.453-48.229-6.625-8.08 6.451-8.128-7.33-8.221-17.673-6.736-13.25 8.08-23.853-15.005-19.876-3.463zM60.758 215.74l10.436 11.313 14.544 5.7z"/>
        <path fill="#FFF" d="M1018.534 722.385l-9.79 18.94h12.664l5.703-11.036 18.781 3.83-10.329 7.206h3.692l9.494-6.624 22.39 4.564-1.15 2.06h2.568l.887-1.59 7.801 1.59h50.674l-106.801-21.773c-2.689-.553-5.448.64-6.584 2.833"/>
        <g transform="translate(-.085)">
            <mask id="f" fill="#fff">
                <use xlink:href="#e"/>
            </mask>
            <path fill="#FFF" d="M28.085-54.325L12.667-46 2.085-60.753 19.643-71l8.442 16.675zm9 17.225L23.898-31l-9.813-13.808L29.111-53l7.974 15.9zM77.035-65l19.05 32.762L49.191-18 31.085-53.195 77.035-65zm27.05 75A47591.275 47591.275 0 0 1 58.69 1.14l-8.604-16.8L97.11-30c.736 4.276 3.415 19.784 6.976 40zm10 56.289L101.055 68l-4.451-24.999L91.085 12l13.835 2.721c2.75 15.716 5.955 33.84 9.165 51.568zM116.026-35l6.06 49-5.987-1.168a11208.793 11208.793 0 0 1-7.763-44.53 4.573 4.573 0 0 0-.25-.874l7.94-2.428zm30.179-9l19.88 42.762L162.764 22c-12.103-2.339-25.366-4.903-38.437-7.433l-6.242-50.046L146.205-44zm21.906-8l37.974 83-41.5-8.257 3.359-24.18a.92.92 0 0 0-.075-.51l-19.784-43.807L168.111-52zm-3.026-17.438L187.901-78l8.184 15.5-24.317 7.5-6.683-14.438zm52 45.639L190.897-15l-17.812-38.488L197.445-61l19.64 37.2zM235.005-72l9.08 18.952-34.397 10.993c-.04.014-.066.038-.102.055l-10.5-19.27L235.005-72zm-16.92-10.426L243.872-90l5.213 11.514L224.081-71l-5.996-11.426zm49.336.426l8.664 18.482L246.99-54l-8.904-19.03L267.421-82zm22.604-7l18.06 35.21-20.78 6.79-17.22-36.02 19.94-5.98zm37.282 10l9.778 17.06-24.82 6.94-7.18-14.37L327.307-79zm30.778 41.312L327.898-24l-14.813-29.065L338.395-60l19.69 22.312zM362.255-80l22.851 24.957 2.98 4.12L359.915-38l-19.83-22.736L362.254-80zm41.83 50.293L376.993-19l-15.908-18.124L389.325-50l14.76 20.293zM422.678-72l55.177 47.915 10.23 40.28-13.4 5.805-5.596-8.41c-.002-.003-.002-.006-.002-.008a29.662 29.662 0 0 1-.006-.005L454.021-9.06v-.002l-.003-.002-5.976-8.98c0-.002 0-.003-.002-.003l-.002-.004-7.13-10.717c-.319-.481-1.025-.646-1.574-.372l-24.37 12.128-23.879-33.096L422.678-72zm97.407 76c-2.97 18.244-7.241 43.971-7.305 44.362a.849.849 0 0 0 .008.334l4.058 19.274L488.974 82l-8.759-9.233-9.13-12.723L490.9 16.405c.011-.027.007-.054.017-.081a.92.92 0 0 0 .054-.261.863.863 0 0 0-.008-.141c-.006-.041.004-.078-.007-.12L488.32 5.37 520.085 4zm4.845-16l25.322 5.809 1.742 8.987c.065.335.317.62.67.76l31.421 12.364c-12.208 24.676-21.583 44.347-22.602 48.552-.103.426-.232.944-.377 1.514l-32.862-3.472c-.027-.002-.052.005-.076.004-.056-.004-.11.001-.163.006a1.25 1.25 0 0 0-.275.053c-.027.01-.056.007-.084.017-.016.006-.027.018-.043.025-.023.01-.047.014-.068.024L518.927 67l-3.842-18.35c.637-3.86 8.58-52.018 9.845-60.65zm-.275-30.133c1.604-2.314 9.038-16.207 10.99-19.867 9.364 3.499 19.31 7.215 29.44 10.997L550.055-9l-25.206-5.71c.013-1.481-.12-4.153-.285-7.398-.327-6.482-.935-18.547.091-20.025zm84.43 8.557C600.781-17.534 592.234-.905 584.688 14L553.803 2.105l-1.718-8.677L567.405-49c13.965 5.168 28.203 10.438 41.68 15.424zm4.308.576C646.72-20.447 674.48-9.996 680.085-7.884c-7.53 16.17-16.083 34.728-22.818 49.884l-19.613-7.69 11.77-20.67c.285-.498.057-1.108-.511-1.359-.563-.252-1.258-.048-1.544.45l-11.817 20.755-46.467-18.22C596.41.54 604.831-16.158 613.393-33zm18.365-36l47.327 17.51-7.332 14.178L661.248-17l-47.163-17.642c5.95-11.62 11.948-23.274 17.673-34.358zm11.653-22l109.483 32.675L764.085-3l-70.458-26.808c4.098-8.752 6.783-14.443 6.898-14.687.247-.52-.029-1.117-.614-1.336l-66.826-25.003A12442.33 12442.33 0 0 1 643.411-91zM897.085-1.774l-5.194 7.598c-.016.024-.016.049-.03.07-.014.023-.037.034-.05.058L884.278 19 816.663-4.543c-.564-.197-1.203.021-1.47.5l-10.35 18.641-34.629-16.43c.035-.213.044-.428.002-.642L759.086-57l138 55.226zM900.927 1c7.135 6.344 15.924 14.28 23.158 21l-27-15.433L900.927 1zm18.329-27l98.83 51.112L1003.414 68l-71.29-41.153C922.78 17.762 908 4.427 902.085-.88L919.255-26zm23.83 1.292L942.422-18l-14.338-8 15 1.292zm-64-26.536L885.335-70l61.75 4.08-4.13 38.92-20.182-1.613-43.689-22.631zM947.683-52l23.088 2.136-.713 12.38c-.032.56.46 1.038 1.099 1.065l.06.001c.612 0 1.122-.42 1.155-.964l.704-12.268 19.008 1.759L989.935-24l-44.85-3.577 2.6-24.423zm1.711-14l43.69 3.09-.696 7.563v.003L991.897-50l-19.213-1.736a1.226 1.226 0 0 0-.745-.292 1.174 1.174 0 0 0-.67.164l-23.184-2.095L949.395-66zm1.717-21c15.131 2.344 30.267 4.602 43.973 6.49L993.67-65l-44.585-3.186L951.112-87zm44.682 23.25v-.002L997.29-80c12.174 1.648 23.126 2.989 31.795 3.819L1026.625-54l-31.54-2.018.71-7.732zm36.49 3.75l19.801.836-.853 40.164-23.147-1.865L1032.284-60zm1.341-16c2.298.19 4.386.333 6.222.42 3.459.163 7.948.394 13.238.68l-.955 13.9-20.045-.833 1.54-14.167zm53.46 62.677L1085.255 30l-33.17-4.04.913-41.96 34.087 2.677zm-33.11-45.997l1.017-14.68c19.062 1.029 47.401 2.677 76.093 4.378L1121.502-13l-68.417-5.387.89-40.933zM1135.703-70c12.751.76 25.47 1.524 37.382 2.242L1163.228-10l-37.143-2.935L1135.703-70zm39.24 2a71272.13 71272.13 0 0 1 56.142 3.424c-.03 19.602-.224 41.225-.767 59.576l-28.765-2.277a1.199 1.199 0 0 0-.657-.242c-.238-.025-.45.04-.643.138l-35.168-2.786L1174.943-68zm4.504-17l52.622 4.59c.012 3.977.018 8.13.016 12.41-9.732-.59-30.458-1.847-55-3.314L1179.447-85zm68.638 215l-19-.752c1.46-12.608 2.872-24.838 4.185-36.248l14.815 37zm25.437-44.947l4.563 13.93-34.258 7.017-8.742-21 38.437.053zm29.185 1.01L1315.085 132l-25.182-.976L1275.085 85l27.622 1.063zm25.28.825v.015L1341.084 133l-23.674-.923L1305.085 86l22.901.888zm18.995.77L1362.085 134l-18.938-.743L1330.085 87l16.897.659zm15.148.809L1378.085 134l-13.074-.508L1350.085 88l12.045.467zm37.955 57.7A72139.44 72139.44 0 0 1 1303.65 175l-10.565-33 107 4.167zm34 60.446L1422.991 215l-10.922-11.808-19.984-43.42c8.336-2.493 15.917-4.762 22.63-6.772 4.862 13.785 16.525 45.811 19.37 53.613zM1406.271 227c-4.681-5.667-7.7-9.707-8.231-11.277-2.677-7.887-17.15-40.774-21.955-51.64l13.668-4.083 20.075 43.58c.043.093.1.18.173.256l11.084 11.974-14.814 11.19zm11.814 17.957L1408.11 252l-11.025-12.45 9.9-7.55c3.24 3.88 7.006 8.27 11.1 12.957zm10 9.63l-9.783 7.413-8.217-9.013 10.19-6.987c2.511 2.784 5.129 5.659 7.81 8.588zM1380.84 293l-8.755-11.365L1408.013 256l8.072 9.211L1380.84 293zm17.245 24.369L1343.31 342l-12.375-14.818-3.85-9.776L1379.721 295l18.364 22.369zm13 15.664L1385.09 349l-14.004-17.474L1399.378 319l11.707 14.033zm16 19.143A2054.224 2054.224 0 0 1 1401.1 369l-14.015-17.8 25.922-16.2 14.078 17.176zm-9 41.195L1397.833 408l-16.748-22.018a3160.072 3160.072 0 0 0 20.79-12.982l16.21 20.37zm15 19.5L1412.18 428l-13.095-17.186 20.55-14.814 13.45 16.871zm-10 38.61L1344.546 494l-5.46-12.81 69.938-48.19 14.061 18.481zm-75.18 57.006c.038.085.123.132.18.203L1318.477 519l-10.392-26.525 28.28-10.192c.098-.037.193-.086.279-.145l.197-.138 11.064 26.487zM1398.497 494l15.588 40.515L1334.012 558l-14.927-37.09 79.412-26.91zm19.105-7l17.483 40.482-18.63 5.518-15.37-40.348 16.517-5.652zm-22.517 101.827L1376.248 595l-15.163-39.73 18.116-5.27 15.884 38.827zm3 6.967L1378.937 602l-1.852-4.817 19.022-6.183 1.978 4.794zm9 24.169L1388.327 626l-8.242-22.655 18.511-6.345 8.49 22.963zm21 54.547l-18.794 7.49-20.206-54.038 19.048-5.962 19.952 52.51zM1383.317 690l-1.412-.937a6.097 6.097 0 0 0-.941-.5l-18.879-51.96 24.531-7.603 20.47 54.195-23.769 6.805zm-4.301-2.233l-13.823.233-18.108-46.732 13.677-4.268 18.323 50.77c-.021.002-.046-.003-.069-.003zm-24 .233l-16.93-44.144 6.016-1.856 17.983 45.883-7.069.117zm-10.189 0l-15.742-41.612 7.565-2.388 16.435 43.859-8.258.141zm-42.9 2l-.842-11.483L1334.118 668l7.967 21.306-40.158.694zm-2.842-34.534l27.149-8.466 6.851 17.889L1300.55 675l-1.464-19.534zm-1-23.86l19.981-6.606 8.02 20.835-26.313 8.165-1.688-22.394zm-1-7.793L1333.213 612l1.872 4.74-37.604 12.26-.396-5.187zm-2-21.812l30.467-9.001 6.533 16.444L1296.546 621l-1.46-18.999zm-2-27.211l23.067-6.79 8.933 22.934-30.099 9.066-1.9-25.21zm-59.256 155.19c-12.359 2.65-28.155 3.426-45.451 2.831-.063-2.614-.161-6.124-.293-10.1L1291.56 714l.526 6.921c-19.224 2.15-39.713 5.082-58.256 9.06zm-45.744-21.4l1.72.322a2.733 2.733 0 0 0 .785.028L1291.142 698l.943 12.313-103.55 8.687a814.979 814.979 0 0 0-.45-10.42zm-1-16.498l28.94-9.082 7.06 18.365-32.608 3.635-2.535-.486c-.24-4.383-.525-8.648-.857-12.432zm-2.339-12.032c-.23-1.007-1.512-4.643-3.66-10.44l25.666-8.61 7.333 19.153-28.089 8.847c-.364-3.73-.776-6.864-1.25-8.95zm-151.536 17.347c-4.287-3.906-8.863-11.502-14.125-21.397l7.654 1.467a4404.514 4404.514 0 0 1 7.531 17.342c.272.636.893 1.109 1.65 1.26l139.408 27.726a2.634 2.634 0 0 0 .738.041l6.737-.579c.127 3.804.219 7.175.282 9.743-59.44-2.883-134.174-21.304-149.875-35.603zm-21.145-34.638c-14.009-27.598-33.06-65.088-64.98-99.461 4.915-3.923 10.499-7.73 16.616-11.298 12.682 18.668 24.015 37.547 31.176 53.548A7284.516 7284.516 0 0 1 1025.085 674l-8.077-1.553a1664.687 1664.687 0 0 1-4.943-9.688zm-26.486 2.89l-72.494-41.324 13.416-36.873c2.035-5.589 6.308-11.55 12.27-17.452 30.684 33.143 49.216 69.42 62.864 96.16l1.45 2.84-17.506-3.35zM950.05 742l-72.964-17.401L911.167 628l70.918 40.546L950.048 742zm-77.521-18l-11.443-2.718L896.18 625l10.906 1.477L872.528 724zm-79.443-18.693L802.632 613l91.453 12.377L859.211 721l-66.126-15.693zm-37-8.633L768.308 654l27.777 2.621L791.094 705l-35.009-8.326zM751.382 694l-54.297-12.886 1.76-29.458 10.783-2.722c.406-.104.716-.39.81-.75L715.937 627l53.148 5.321L751.382 694zm-15.904 51l-53.393-12.126L694.111 692l52.974 12.57L735.478 745zm-95.393-76.498L651.755 622l60.33 5.975-5.27 20.089-10.882 2.719c-.474.118-.807.482-.834.907L693.33 681l-53.245-12.498zM628.357 670l-38.272-10.215L604.924 611l36.161 8.153L628.357 670zm-13.359 52l-44.913-10.174L572.687 658l54.398 14.796L614.998 722zm-69.913-74.62L556.6 600l46.485 10.53-14.67 48.47-43.33-11.62zm104-60.707L641.497 617l-36.776-8.298-.004-.001h-.004l-47.628-10.745L563.422 572l85.663 14.673zm-106-78.673l122 10.98L649.413 583l-86.707-15.187L543.086 508zm-16.863-50.105a4.992 4.992 0 0 0-1.504-2.2l-1.633-1.4 1.67-77.295c11.013 2.838 21.205 9.532 31.962 16.645 10.681 7.065 21.728 14.37 34.78 18.699 5.265 1.745 10.407 3.172 15.38 4.556 20.151 5.596 37.558 10.43 57.926 33.585 3.832 4.355 9.013 7.882 15.282 10.888l-5.025 20.264-95.015-12.136a1.298 1.298 0 0 0-.862.194.99.99 0 0 0-.452.673L572.738 509l-30.433-2.704-16.083-48.401zM468.608 319l-.523-18.175 57-2.825-1.65 20.111-54.827.889zm52.055 17.886L468.593 338l-.508-17.135 54-.865-1.422 16.886zM520.526 365c-20.714-3.287-63.988-5.575-90.65-6.737-.614-4.179-1.59-10.787-2.79-18.903l40.752.806h.025l.013-.002.016.002L521.085 339l-.559 26zm-1.046 86l-40.757-35.278a5.926 5.926 0 0 0-1.956-1.115c-.4-.137-20.175-6.844-50.682-14.027l3.93-31.58c27.677 1.225 72.53 3.62 91.07 6.925L519.48 451zm-98.22-51c-26.898-6.118-61.304-12.353-97.932-14.98l-23.243-42.885L305.77 278a170289.96 170289.96 0 0 1 96.791 89.158c1.042.96 2.472 1.526 3.982 1.576.26.009 7.59.256 18.542.718L421.26 400zM294.085 238.252l56.04-5.165c.103.027.205.052.316.052a1.226 1.226 0 0 0 .57-.134L405.346 228c1.53 9.224 3.97 24.892 6.74 43l-108.09-10.096-6.002-5.484c-.927-4.14-2.276-10.102-3.908-17.168zM290.165 323l-24.468-44.936c-.54-.99-1.432-1.8-2.547-2.31-81.202-37.037-170.94-80.568-177.25-88.21-2.615-3.874-9.096-24.188-15.815-45.694 19.67-3.569 39.167-6.993 56.517-9.85 1.409 6.59 2.582 11.556 3.411 14.24 6.792 22.007 27.071 45.55 48.218 55.977 9.92 4.891 27.167 11.333 43.847 17.564 14.398 5.379 34.115 12.745 36.95 15.06 1.922 1.677 16.684 15.162 36.057 32.9L290.165 323zM56.085 97.95L75.355 95l6.73 33.157c-5.19.932-10.424 1.883-15.668 2.843-3.278-10.612-6.763-21.877-10.332-33.05zm-7-22.003L71.11 73l3.975 19.951L55.543 96a1419.968 1419.968 0 0 0-6.458-20.053zm-8-22.821L66.425 49l4.66 23.069L48.853 75c-2.613-7.724-5.219-15.116-7.768-21.874zm-7-16.714L48.082 34l4.003 15.007L39.988 51c-2.016-5.329-3.99-10.237-5.903-14.588zm32 10.723L54.24 49l-4.154-14.887L62.925 32l1.271 6.087 1.89 9.048zM66.333 36l-1.242-5.962v-.005l-.002-.004L60.085 6c7.161 1.377 16.992 3.267 28.234 5.423l3.766 20.635L66.333 36zm1.377 10l-1.625-7.992L91.676 34l1.41 7.898L67.71 46zm5.15 25l-4.775-22.945L93.748 44l4.337 23.77L72.86 71zm29.225 18.266L78.035 93l-3.95-19.725L98.703 70l3.382 19.266zm6 34.643c-7.54 1.3-15.33 2.673-23.245 4.091l-6.755-33.3 24.148-3.7 5.852 32.91zm16-3.164c-4.362.718-8.854 1.471-13.447 2.255l-9.553-53.307L114.082 68c3.559 19.492 7.1 38.35 10.003 52.745zm-3.934-86.69c-1.059-5.867-2.088-11.589-3.066-17.055 7.66 1.476 15.47 2.979 23.148 4.456L142.085 35l-21.934-.944zm22.062 3.908l7.872 15.523L124.786 63c-1.588-8.7-3.173-17.48-4.7-26l22.127.963zM167.795 46l-4.71-11.363L164.327 26c15.955 3.066 29.627 5.691 37.758 7.251L167.795 46zm67.29 43.843L215.305 91l-23.22-51.937L205.601 34c1.148.222 2.09.404 2.774.538 2.609 5.453 14.56 30.428 26.71 55.305zm4-72.333L211.833 30l-19.748-42.211L218.531-21l20.554 38.51zm14-53.535L219.621-25l-8.536-15.856L245.527-52l7.558 15.975zm2.527-.975l-7.527-15.619L277.616-62l7.47 15.467L255.611-37zm37.473 7.412L264.41-19l-7.324-15.428L286.23-44l6.855 14.412zm15 14.265L303.103-13l-15.018-32.515L292.48-47l15.606 31.677zm2.727-.677l-15.727-31.374L309.001-52l15.084 29.916L310.812-16zm22.273 13.863L319.232 3l-8.147-15.98L324.44-19l8.645 16.863zm.13-11.863l-4.13-8.066L359.955-36l8.13 9.17L333.215-14zm4.57 11l-3.7-7.556L369.015-24l6.07 7.158L337.785-3zm41.3-7.719L341.362 3l-2.277-4.506L376.61-15l2.475 4.281zM384.887-5l-6.802-11.5L405.17-27l7.915 10.673L384.887-5zm44.198 11.73L398.347 19 386.085-2.37 414.172-14l14.913 20.73zM423.32-7l-6.235-8.584L440.175-27l5.91 8.826L423.32-7zm6.02 9l-5.255-7.007L447.213-16l4.872 7.046L429.34 2zm5.944 9l-5.199-6.992L452.755-7l5.33 7.776L435.284 11zm10.393 13l-8.592-11.741L459.602 2l7.483 11.09L445.677 24zm5.637 8l-4.229-5.94L468.2 15l4.886 7.44-21.77 9.56zm16.771-5.755l19-8.245-10.028 22-8.972-13.755zm-16 7.924L466.3 28l9.786 15-6.836 15-17.164-23.83zM464.27 75l-11.184-17.91L463.241 53l13.844 19.094L464.27 75zm43.816 29.605c-3.363.075-27.3.607-60.957 1.395l-11.043-22.328L478.735 74l29.35 30.605zm10-6.982L509.183 103l-19.098-20.532L502.683 76l15.402 21.623zm14-7.118L520.782 97l-15.697-20.957L517.46 70l14.625 20.505zm7-2.835L533.922 89l-14.837-21.034L527.12 64l11.965 23.67zm16.557-4.48L540.776 87l-11.69-23 31 3.177c-1.021 3.792-2.585 9.419-4.444 16.013zm50.443 2.846L579.383 111l-21.298-17.013c2.87-10.286 5.386-19.413 6.862-24.987l41.138 17.036zm.422-2.036l-41.422-17.16c.187-.716.354-1.374.48-1.886.931-3.802 9.916-22.435 22.203-46.954l46.317 18-27.578 48zm39.42-12.04c-1.583 8.53-1.59 23.135-1.542 28.04l-35.3-14.558L637.043 37l20.042 7.754c-6.142 13.69-10.616 24.279-11.158 27.206zm88.158 2.21L722.64 103l-76.54-3.447c-.043-3.954-.104-19.496 1.494-28.098.515-2.774 4.889-13.073 10.913-26.455l75.578 29.17zm15-36.677L735.017 73l-75.932-29.366C663.827 33.117 669.48 20.909 675.056 9l74.03 28.493zM786.115 49l-31.03-11.86L769.505 1l34.58 16.15L786.115 49zm66.127 25l-64.157-25.069L816.744-3l66.341 23.24L852.242 74zm64.843-30.08L905.84 63l-32.754-15.748L884.205 28l32.88 15.92zm.737-1.92l-32.737-15.748L894.536 10l31.55 18.072L917.821 42zm30.263 24.542L927.238 75l-13.153-22.334 4.936-8.13L927.846 30l8.171 4.573c.99 1.033 1.612 1.767 1.751 2.102.41 1.064 4.715 13.552 10.317 29.867zM957.524 89c-8.003-23.954-15.713-46.989-17.439-52l60 34.465L957.524 89zm27.585 30l-17.654-.684c-2.907-8.623-6.148-18.231-9.37-27.78l43-17.536-15.976 46zm28.777-26.526c.014.027.048.04.061.067.039.06.062.126.113.181.15.156 10.217 10.854 18.025 28.278l-42-1.654L1005.252 75l8.634 17.474zM1113.78 34l-25.694-3.228 1.79-43.772 31.21 2.53L1113.78 34zm34.747.7l-30.44.3 7.524-45 36.475 2.906-13.56 41.793zm48.017-.154l-45.458.454 13.465-42 34.535 2.783-2.542 38.763zm32.192-.824l-28.65.278 2.568-38 28.432 2.223c-.412 12.888-1.01 23.996-1.868 31.37l-.482 4.13zm37.613 142.314l3.737 9.267c-16.63 4.894-33.335 9.805-50 14.697a54989.42 54989.42 0 0 0 7.177-60l24.65.948 14.436 35.088zm-12.64-46.395l-8.623-21.51 33.537-7.131 9.463 30-34.378-1.359zm20.61 54.359l-3.676-9.319L1257.085 141l33.35 1.313 10.65 33.627c-8.88 2.675-17.81 5.365-26.767 8.06zm36.767 21.862L1287.88 218l-9.794-24.205c9.055-2.657 17.917-5.259 26.544-7.795l6.456 19.862zm27-8.017L1313.501 205l-6.416-20.09a58688.34 58688.34 0 0 0 23.096-6.91l7.904 19.845zm30.9 5.938l4.1 7.383-24.387 7.834-8.452-21.085v-.002l-8.16-20.654c8.339-2.516 16.366-4.941 24.042-7.259l12.857 33.783zm6.188 7.217l-4.17-7.488-12.918-33.852 15.46-4.66c3.45 7.882 12.076 27.679 17.54 40.904L1375.173 211zm7.512 11l-5.6-10.002 15.68-4.998c1.464 3.56 2.635 6.507 3.32 8.421l-13.4 6.579zm12.338 15l-10.938-12.57 12.812-6.43c1.227 2.225 4.138 6.15 8.188 11.19l-10.062 7.81zm-33.938 31.191l34.06-26.191 10.94 12.457L1370.201 280l-9.116-11.809zm-29 13.167l24.833-10.25c.187-.077.36-.174.517-.291l2.435-1.817 19.215 24.129L1345.608 307l-13.523-25.642zm-5.07 33.642l-10.93-27.06 14.363-5.94 13.637 25.913-17.07 7.087zm-40.513 29l-3.417-8.356L1323.568 319l3.517 8.63-40.583 16.37zm6.237 17l-5.654-14.219L1327.518 330l11.567 13.767L1292.74 361zm81.346 24.594c-22.23 13.898-43.527 26.844-58.13 35.406l-15.102-38.44.2-.074c.589-.217.869-.815.623-1.338-.244-.522-.927-.77-1.513-.55l-.07.025-7.008-17.832 47.29-17.791 33.71 40.594zM1362.315 364l-17.23-20.154L1369.767 333l14.318 17.733-21.77 13.267zm.77 1.421L1384.848 352l14.237 17.844c-6.988 4.391-14.098 8.81-21.15 13.156l-14.85-17.579zM1329.94 458l-11.854-33.439c14.817-8.563 36.472-21.613 58.97-35.561l17.03 22.477L1329.94 458zm.146 2.59L1395.05 414l13.036 17.018L1337.987 479l-7.902-18.41zm-30 10.485L1328.991 461l8.094 18.63-.664.452-28.625 9.918-7.71-18.925zM1277.207 533l-10.122-26.113L1305.687 493l10.398 26.492L1277.207 533zm.878 2.55l21.964-7.55 14.036 36.42-22.11 6.58-13.89-35.45zm-20 133.916l30.481-9.466 2.52 33.429-23.303 2.571-9.698-26.534zm-2.412 1.534l9.412 25.627-39.824 4.373-7.176-18.384L1255.673 671zm-7.827-23l7.24 20.128L1217.462 680l-7.378-19.309L1247.846 648zm-2.498-7l1.737 4.646-38.18 12.354-1.82-4.586L1245.348 641zm-39.308 11l-7.955-20.293L1210.5 628l7.585 20.04-12.045 3.96zm-27.955 11.428l26.167-8.428 1.833 4.582-26.209 8.418c-.55-1.416-1.147-2.938-1.79-4.572zM1157.26 699l-39.175-7.52L1176.32 672c2.04 5.49 3.257 8.93 3.472 9.877.495 2.162.922 5.563 1.294 9.639L1157.26 699zm4.825.126l19.328-6.126c.254 3.094.477 6.491.672 10l-20-3.874zm20.489 8.416c.204 4.036.373 8.095.511 11.888l-6.697.57-138.267-27.23c-.859-1.974-2.952-6.765-6.036-13.77l150.489 28.542zM1091.784 641l18.301 48-80.033-15.31a5589.132 5589.132 0 0 0-4.967-11.33l66.698-21.36zm-32.815-86l8.433 22.295v.002l23.683 62.376L1024.767 661a7278.056 7278.056 0 0 0-25.508-57.559c-3.24-7.227-7.391-15.135-12.174-23.404L1058.97 555zm-80.76-11.503c3.751-1.696 12.662-5.025 25.215-9.497l11.495 33.562c.03.085.114.133.166.207L985.573 578c-5.515-9.376-11.805-19.178-18.488-28.963a172.877 172.877 0 0 1 11.124-5.54zm-29.124-19.938l5.58-15.142L1030.907 481l13.177 34.299c-15.478 5.248-29.259 9.98-40.43 13.9a1.28 1.28 0 0 0-.594 0 1.13 1.13 0 0 0-.64.433c-13.129 4.62-22.461 8.061-26.325 9.789A178.501 178.501 0 0 0 964.733 545a697.026 697.026 0 0 0-15.648-21.44zM947.33 530a677.524 677.524 0 0 1 13.756 18.565c-6.464 3.61-12.345 7.458-17.533 11.435a279.084 279.084 0 0 0-5.467-5.35L947.33 530zm-25.67 24a262.87 262.87 0 0 1 8.426 8.026l-8.844 24.306c0 .005-.002.008-.004.014v.003L907.904 623l-10.819-1.467L921.658 554zm-140.574 51.592l.98-3.41L807.906 493c27.543 7.928 56.075 19.144 83.006 36.838 10.653 7 20.327 14.543 29.174 22.42L895.004 621l-113.919-15.408zm-7 26.055L780.363 610l19.722 2.64-2.233 21.36-23.767-2.353zm-.12 1.353l24.12 2.467L796.311 653l-27.226-2.62 4.88-17.38zm1.12-24.31L768.658 631l-115.573-11.52L660.68 589l114.406 19.69zM670.143 553l114.942 15.753-7.756 32.666-1.033 3.581-114.21-19.656L670.142 553zm-4.367-36l-90.69-7.984L580.88 472l93.205 11.797-8.31 33.203zM525.59 343l65.99 47.934c.231.166.494.293.779.37l44.94 12.474c2.88 1.208 31.52 13.186 53.786 21.369-2.414 12.364-4.312 22.084-5.44 27.853-4.859-2.361-8.79-5.04-11.564-8.215-22.583-25.837-43.434-31.665-63.599-37.302-4.823-1.35-9.809-2.744-14.774-4.402-11.499-3.837-21.87-10.74-31.898-17.419-11.615-7.73-23.623-15.723-37.403-18.869-.41-.091-.876-.182-1.322-.275L525.59 343zm.495-64l-1.44 17.227L467.607 299l-.523-17.767 59-2.233zm-60-55l45 .504-4.334 43.99L467.423 270l-1.338-46zm-48 58.246l5.764.546c.287.03.575.035.86.025L445.8 282l6.442 38.706c.084.5.568.866 1.133.866h.021l12.185-.2.505 17.628-39.717-.792c-2.295-15.62-5.333-36.234-8.283-55.962zm7 76.754c-7.028-.296-12.512-.5-15.474-.607-9.567-8.938-55.56-51.912-92.526-86.393l96.547 9.198c3.91 26.23 8.23 55.67 11.453 77.802zm11.07-134.699l7.93 46.956-19.462.743-8.1-.758c-3.113-20.405-5.942-38.575-7.438-47.242l27.07.301zm102.93-81.567c-1.746 6.152-2.878 10.124-2.925 10.294-.03.112-.052.227-.063.34L534.804 169l-71.227-.801-1.492-51.2c22-.512 37.998-.87 43.767-.999l33.233 26.734zM542.621 130l-30.262-24.149c-.155-.124-.33-.22-.497-.326l-.777-.805 22.66-13.204L555.085 86c-3.82 13.64-8.679 30.728-12.464 44zm7.605 7l-4.14-3.307A12334.3 12334.3 0 0 0 556.776 96l20.308 16.092L550.225 137zm66.86 7.407L590.031 169l-37.947-30.309L578.71 114l38.375 30.407zm9 7.348L598.738 176l-6.654-5.37L618.9 146l7.186 5.755zm23 15.245l-28.425-22.622-.166-15.163-.41-37.215 24.6 10.152 4.4 64.848zm-.866-33l-2.135-31 13.768.612 1.232 30.002-12.865.386zm13.865 33.122l-11.771.878-2.229-32.614L660.78 135l1.306 32.122zm1.23-34.122l-1.23-29 13.806.595 1.194 28.003-13.77.402zm14.77 33l-13.684 1-1.316-31.593 13.702-.407 1.298 31zm17-33.48l-15.85.48-1.15-28 14.17.635 2.83 26.885zm1.78-.52l-2.78-27 28.035 1.28 2.965 24.846-28.22.874zm32.22 29.82L700.208 164l-3.123-30.123 28.537-.877 3.463 28.82zm34-47.393L747.905 142l-16.616-9.385-3.204-26.403 2.472-6.212 32.528 14.427zm6.705-35.334l9.295 4.217L764.037 111l-32.952-14.806L739.41 75l30.38 4.093zm.286-1.093l-28.99-3.927L754.783 39l30.301 11.829L770.076 78zm20.944-9.592a.884.884 0 0 0-.078.788c.095.263.316.478.602.595l10.541 4.321L794.73 88l-22.644-10.181L787.12 51l11.849 4.558-7.949 12.85zM802.45 73l-9.365-3.882L800.502 57l8.583 3.338L802.451 73zm22.318 9l-19.683-8.154L811.82 61l20.265 7.874L824.768 82zm22.948 9l-21.63-8.884L833.46 69l17.624 6.789L847.716 91zm19.37 10.23l-18 8.77 3.234-15 14.765 6.23zm20-9.612L869.313 100l-17.229-7.037L855.416 78l31.67 13.618zM888.966 90l-32.882-14.232L871.642 49l32.443 15.505L888.967 90zm24.118-8.719l-21 8.719 13.653-23 7.347 14.281zm2.02-1.281l-8.02-15.372L912.877 55l12.208 20.914-9.98 4.086zm21.98 17.481L926.197 102l-10.112-19.85 9.897-4.15 11.103 19.481zM939.233 96l-11.148-19.621L948.004 68c2.227 6.725 4.642 14.023 7.081 21.4L939.233 96zm-42.148 20.333l1.929-.797c.214.167.464.287.75.287.146 0 .294-.024.439-.076.47-.167.736-.573.71-.993L956.08 92l9.006 27-68-2.667zm76 27.584L955.673 149l-7.588-20 20.268.79c1.88 5.612 3.505 10.46 4.732 14.127zm3.49 2.083c-1.29-3.759-3.198-9.327-5.49-16l11 .419-5.51 15.581zm37.51 15.434L985.862 169l-6.777-17.681L986.251 131l17.178.655 10.656 29.779zm22.31-29.273c1.94 5.686 3.497 11.872 4.348 18.484.117.923.23 1.826.342 2.724L1016.43 160l-10.345-29 30.31 1.16zm-.857-36.987L1046.085 122l-11.559-.443c-6.268-13.916-14.098-23.712-17.44-27.557l18.452 1.174zm-.453-2.174l-19.506-1.241L1007.085 75l21.92 2.515 6.08 15.485zm63.98 4l-62.039-3.93-5.94-15.07 72 8.23-4.021 10.77zm94.02 7.772L1191.287 127l-97.202-3.76L1103.03 99l90.056 5.772zm2-19.648l-1.43 17.876-89.57-5.81 4.446-12.19 86.554.124zM1217.948 128l-22.863-.875L1198.538 85l24.547.035c-1.581 13.263-3.322 27.839-5.137 42.965zm30.137 102.04l-32 8.96c1.071-8.767 2.208-18.107 3.382-27.805 8.288-2.421 16.5-4.821 24.613-7.195l4.005 26.04zm1.948-.04l-3.948-26.505c9.535-2.88 18.923-5.714 28.12-8.495l9.88 25.162-34.052 9.838zm41.052 7.884L1252.84 250l-2.754-18.17 34.65-9.83 6.35 15.884zm36-12.018L1295.561 236l-6.476-16.44 23.377-12.56 14.623 18.866zm1.55.134l-14.55-18.92 23.917-7.08 8.083 20.343-17.45 5.657zm13.194 16l-11.744-14.96 44.22-14.04 5.78 10.295L1341.83 242zm2.256 1.54L1381.97 225l11.116 12.456-33.74 25.544-15.26-19.46zm-25 13.326L1341.407 246l15.678 19.883-2.611 1.964L1330.119 278l-11.034-21.134zm-13 6.706l11.186-5.572 10.814 21.194-13.61 5.806-8.39-21.428zm-35 43.328l40.238-16.9 10.762 27.055-40.19 16.945-10.81-27.1zm-56 67.1l-2.793-7.07a35.83 35.83 0 0 1-.207-1.02L1280.7 337l3.385 8.478-69 28.522zm5.585 14l-4.585-11.525L1285.424 348l5.661 14.095L1220.67 388zm47.497 4l-6.699-16.563c-.073-.186-.216-.326-.383-.438L1291.106 364l6.98 17.302L1268.166 392zm29.126 39.05c-.264.076-4.643 1.5-12.132 3.95l-16.076-40.21 29.833-10.79 15.167 38.03c-9.153 5.26-15.299 8.588-16.792 9.02zm-10.208 7.965c7.501-2.474 11.889-3.912 12.156-3.99 1.745-.508 7.907-3.829 16.925-9.025l11.92 33.724L1299.376 470l-12.292-30.985zm-28 46.848L1297.533 472l7.552 19.174L1266.53 505l-7.444-19.137zM1218.696 565l-13.61-35.065L1256.09 512l13.994 35.287L1218.696 565zm38.393 19c-.01-.041-.004-.082-.02-.123l-10.984-26.135 25.452-8.742 10.548 26.513L1257.09 584zm-18.01 33l-7.994-21.709 51.06-17.291 1.94 25.534L1239.08 617zm-16.994 7.542l15.052-4.542 6.948 19.035L1229.14 644l-7.055-19.458zm-1.94.458l6.94 19.682L1220.3 647l-7.215-19.807 7.06-2.193zm-18.06-19.377L1218.71 600l7.375 21.288L1210.32 626l-8.235-20.377zm-13 3.868l9.918-3.491 8.082 20.801-10.28 3.199-7.72-20.51zm-28 9.362l25.7-8.853 8.147 21.183c.002.002 0 .003.002.003 0 .002.002.002.002.002l8.15 21.19-25.749 8.622c-4.018-10.586-9.603-25.053-16.252-42.147zm-3.908 2.147c8.283 21.042 14.903 38.024 18.908 48.59L1114.268 690l-1.427-.27-18.756-48.72 63.092-20.01zm-25.748-66a23493.079 23493.079 0 0 1 24.656 63.684L1093.417 639l-23.332-61.947L1131.43 555zm-84.344-36.081c18.583-6.425 39.497-13.57 61.134-20.919 7.445 19.025 14.829 37.922 21.866 55.965L1068.578 576l-21.493-57.081zm11 34.006L1016.69 567c-.006-.023.002-.046-.008-.07l-11.597-33.207c11.12-3.871 24.83-8.54 40.242-13.723l12.758 32.925zM1092.991 458a52242.96 52242.96 0 0 1 14.094 35.465c-21.53 7.206-42.352 14.221-60.884 20.535l-13.116-34.334L1092.991 458zm-67.906 2.86l60.39-20.86c2.185 5.426 4.392 10.904 6.61 16.42L1031.711 478l-6.626-17.14zm-60.438 21.736L1023.519 462l6.566 17.207-74 26.793 8.562-23.404zm-18.87 5.955L959.085 484l-13.102 35a687.199 687.199 0 0 0-7.898-9.903l7.692-20.546zm-18.692 6.934l16-5.485-6.35 17a605.302 605.302 0 0 0-9.65-11.515zM813.883 450c37.326 6.951 71.84 13.482 75.266 14.13 6.705 2.835 25.501 22.994 45.936 49.013L924.647 542a263.583 263.583 0 0 0-26.17-19.815c-29.218-19.36-59.975-31.279-89.392-39.578L813.883 450zm-118.29-24c9.345 3.317 17.054 5.725 20.378 5.99 5.73.455 51.897 8.828 95.114 16.8l-4.78 32.21c-21.854-5.994-42.929-10.062-62.037-13.745-21.964-4.232-40.847-7.889-54.183-13.27 1.061-5.397 3-15.239 5.509-27.985zm-24.515-34l25.007 4.204-4.88 24.796c-7.593-2.791-16.03-6.044-24.12-9.234L671.078 392zm-30.021-5l28.028 4.73-3.878 19.27c-10.39-4.13-19.99-8.067-26.122-10.627L641.057 387zm-53.384-24l53.412 6.895-4.38 29.105-42.917-11.617-9.703-6.873 3.588-17.51zm-17.608-3l16.02 2.124L582.72 379l-24.635-17.926 11.98-1.074zm-24.353-21l43.373 6.35-2.963 14.65-15.982-2.089a1.385 1.385 0 0 0-.288-.006l-14.21 1.254-27.557-19.776 17.627-.383zm-18.235-19l64.608 8.986L589.291 343l-43.401-6.442c-.073-.011-.14-.011-.22-.015l-19.585.431L527.477 320zm3.608-94.805l-3.617 43.111-18.383.694 4.397-44 17.603.195zm26 .049L555.831 242l-21.746-3.19L535.23 225l21.855.244zm2-30.588L556.931 223l-21.846-.24L537.59 193l21.495 1.656zm-1.484-21.703l10.484 9.04L559.797 192l-21.712-1.679 1.62-19.321 17.896 1.953zM569.86 181l-10.597-9.284a1.216 1.216 0 0 0-.667-.287l-18.51-2.045 1.27-15.418c.204-.715 1.031-3.632 2.257-7.966l33.472 27.026L569.86 181zm17.004 20l-23.779-8.176 8.334-10.207 7.819-8.617 11.847 9.552-4.22 17.448zm32.221-7.887L614.61 210l-25.525-8.478L593.223 185l3.592 2.796c.591.462 1.292.814 2.054 1.036.75.22 8.032 2.29 20.216 4.28zm10.774-19.629A64.132 64.132 0 0 0 627.142 184c-12.748-1.748-21.358-3.859-24.275-4.629l-2.782-2.203L627.854 153l18.231 14.328c-5.105-.224-14.132.25-16.226 6.156zm.226 11.654c.436-2.57 1.23-6.31 2.636-10.318 1.965-5.608 12.993-4.935 16.222-4.612L650.085 187a281.997 281.997 0 0 1-20-1.862zm37 12.373L662.406 229l-48.32-4.748 1.987-11.742 4.77-18.51c11.751 1.863 27.582 3.55 46.242 3.511zM705.09 195c.688 4.443 1.585 10.07 1.962 11.702.415 1.793-3.052 16.707-5.481 26.298l-8.359-.826c-.005 0-.007-.003-.013-.005l-.02.002-29.093-2.875 4.69-31.719c11.21-.109 23.399-.86 36.314-2.577zm26.996-15.96c-8.795 2.301-17.002 4.08-24.284 5.144-2.056.302-4.09.566-6.113.816l-.603-18.821L730.256 164l1.83 15.04zm27-28.568L735.197 161l-3.112-26 27 15.472zm21-12.631l-2.097 3.848L761.307 149l-11.222-6.395L756.963 130l23.122 7.841zm6-9.86L781.61 136l-23.524-7.793 4.583-8.207 23.417 7.98zm7-15.054L786.281 125l-23.196-7.834 6.86-12.166 23.14 7.927zm10-17.845L794.016 112l-22.93-8.253L781.145 85l13.237 6.083h.002l8.7 4zM815.946 98l-18.86-8.296L804.501 76l19.583 7.857L815.946 98zm27.32 12l-26.18-11.686L825.202 84l21.882 8.91-3.819 17.09zm35.82 11.804l-36 15.196 5.137-23.857L869.032 103l10.053 18.804zm22 26.666L878.62 158l-11.535-18.055A1470.424 1470.424 0 0 0 893.162 128l7.923 20.47zm33 7.102L911.94 162l-13.855-35 25.868 1.002 10.132 27.57zm1.855-.572l-9.856-27 20.076.784 7.924 20.913L935.941 155zm25.144 14.225L942.436 174l-6.35-17.623L954.268 151l6.816 18.225zm32 31.02L977.128 205l-11.043-28.63 16.22-4.37 10.78 28.246zm25.342-28.257v.004l6.658 18.825L997.83 199l-10.744-28.36 28.162-7.64 3.18 8.988zm23.658-7.195L1019.891 171l-2.806-8.23 24.06-6.77c.357 3.076.669 6 .94 8.793zm7.508-32.347l17.492 44.937-21.98 6.617c-.132-9.443-1.088-20.052-2.81-33.6-.834-6.56-2.333-12.72-4.21-18.4l11.508.446zm39.536-8.446l-40.698-1.623L1038.085 95l60 3.967L1089.13 124zm17.953 42l-14.997-31 105 4.047L1107.082 166zm104.375 4.25L1153.012 187l-10.927-29.513L1203.086 139l12 .468a47791.27 47791.27 0 0 1-3.63 30.783zm1.628 91.75c.78-6.429 1.621-13.441 2.512-20.895l31.76-9.105 2.728 18.156-37 11.844zm46 15.894l-49 18.106a495.498 495.498 0 0 1 2.505-26.335l.541-4.488L1251.045 253l8.04 24.894zm42-15.306L1262.087 277l-8.002-24.762L1292.178 240l8.907 22.588zm-5-24.523L1328.158 228l11.927 15.014-22.969 11.1c-.002.002-.004 0-.004.002-.004 0-.005.004-.007.004l-12.168 5.88-8.852-21.935zm-34 41.321L1301.596 265l8.49 21.204L1269.831 303l-7.747-23.614zM1210.055 351c-.423-4.81-.789-10.628-.97-17.445L1268.941 308l7.144 18.212-66.03 24.788zm.03 1.701L1277.2 328l2.885 7.207L1211.558 364c-.415-2.448-.968-6.215-1.473-11.299zM1166.46 429l-6.374-16.595L1209.44 394l6.645 16.934L1166.46 429zm65.626 23.143A32821.378 32821.378 0 0 0 1181.563 469l-14.478-37.842L1216.783 413l15.302 39.143zM1227.776 406l-6.69-16.887L1259.3 375a.869.869 0 0 0 .056.414l6.73 16.775-38.31 13.811zm15.922 43l-15.613-39.127L1266.84 396l16.245 40.205c-9.462 3.065-23.063 7.48-39.387 12.795zm2.387 2.968a29480.46 29480.46 0 0 1 38.81-12.968l12.19 31.047L1258.508 484l-12.423-32.032zm-48 55.652l50.502-17.62 7.498 19.071L1205.543 527l-7.458-19.38zM1170.724 561l-6.639-17.181L1203.11 530l6.976 18.098L1170.724 561zm6.485 18l-6.124-16.028L1210.231 550l5.854 15.356L1177.21 579zm-1.359 3l10.235 26.268-25.671 8.732c-3.218-8.17-6.682-16.93-10.329-26.133L1175.85 582zm-14.386-37l13.621 34.973-26.214 9.027c-4.37-11.036-8.996-22.69-13.786-34.735l26.38-9.265zm-7.993-23l7.614 19.72-26.187 9.28c-2.563-6.503-5.173-13.114-7.813-19.802l26.386-9.198zm-13.417-34l13.031 32.958-26.568 9.042a59969.909 59969.909 0 0 0-13.432-33.182c8.929-2.928 17.953-5.877 26.969-8.818zm-16.123-41l14.154 36.152a23273.03 23273.03 0 0 0-26.79 8.848 59507.756 59507.756 0 0 0-14.21-35.392l26.846-9.608zm-7.074-18l6.228 16.283-26.512 9.717-6.488-16.52 26.772-9.48zm-32.772-6.404L1152.23 399l4.855 12.549-39.667 14.681h-.002l-27.99 9.77c-1.795-4.51-3.577-8.982-5.34-13.404zm-64 22.497L1079.741 424l5.344 13.689L1025.294 459l-5.209-13.907zm-48.37 16.846L1017.807 446l5.278 13.781-58 20.219 6.63-18.06zm-18.888 5.656L966.085 463l-6.723 18.36-13.277 4.64 6.742-18.405zM950.085 469l-6.663 18.417L924.82 494a452.167 452.167 0 0 0-10.735-12.363l36-12.637zm4-10l-2.681 7.484L913.284 480a300.675 300.675 0 0 0-4.199-4.545l45-16.455zm-45.954-8.761c.473-.047.852-.337.974-.738l50.744-38.421 13.236-4.08c-9.6 25.795-16.42 43.96-16.646 44.56l-1.982 5.434L907.047 474c-5.65-5.763-10.447-10.051-13.962-12.369l15.046-11.392zM861.425 426l46.66 7.949-.822 11.123L888.551 459c-4.028-.745-16.694-3.078-33.466-6.15l6.34-26.85zm-43.297-7l41.957 7.151L853.747 453c-11.845-2.168-25.559-4.671-39.662-7.23l4.043-26.77zm-36.737 2l32.694 7.226L811.573 445a15576.215 15576.215 0 0 0-33.488-6.086L781.391 421zm-16.202-34l19.896 2.586L775.952 439a7527.756 7527.756 0 0 0-19.867-3.55L765.19 387zm-17.448-3l15.344 2.056L754.164 435a3505.687 3505.687 0 0 0-15.079-2.716L747.741 384zm-11.153-1l8.497 1.14-8.56 47.86c-3.143-.555-5.97-1.048-8.44-1.466L736.588 383zm-13.285-2l10.782 1.395L725.25 430c-4.212-.674-7.117-1.096-8.342-1.193-.696-.054-1.666-.234-2.823-.505L723.303 381zm-18.518-2l15.3 2.003L711.032 428c-3.78-1.054-8.994-2.798-14.947-4.928l8.7-44.072zm-29.616-5l24.916 3.368-3.18 16.632-24.82-4.294L675.17 374zm-31.98-4l28.896 3.811L669.031 389l-27.946-4.72L643.19 370zm-.104-16.229L641.013 368l-52.928-7.057L591.048 346l52.037 7.771zM594.895 330l51.19 7.19-2.147 14.81-51.853-7.774 2.81-14.226zm2.19-21.167L593.242 328l-65.157-9.007L529.734 299l67.351 9.833zm-21-61.244L569.807 273c-4.676-.567-9.26-1.125-13.722-1.67L558.09 245l17.995 2.589zm5-22.346L576.287 245l-18.202-2.666L559.384 225l21.701.243zm.034-2.243l-22.034-.24 2.152-27.76 24.848 8.23L581.12 223zm31.098 1l-28.132-.32 4.716-19.68 25.284 8.781L612.217 224zm41.245 59a48204.082 48204.082 0 0 1-48.377-6.013l2.347-14.113L613.558 226l47.527 4.757L653.462 283zm33.112-24c-13.428-1.95-23.326-3.389-26.489-3.85l3.558-24.15 27.442 2.72-4.51 25.28zm40.511-21.733L721.778 264c-11.796-1.69-23.051-3.304-32.693-4.687L693.666 234l33.42 3.267zM840.15 174l-1.065-21.379c.303-.192.541-.45.706-.754 9.328-3.855 18-7.546 25.66-10.867l11.634 17.739L840.15 174zm45.935-1.078L840.957 194l-.872-17.977L877.838 160l8.247 12.922zm2.098-.922l-8.098-12.697L901.993 150l5.092 13.167L888.183 172zm31.902 23.116L892.83 203l-3.745-29.18 19.17-8.82 11.83 30.116zm-4.5-23.116l-3.5-8.661L934.378 157l3.707 9.888-22.5 5.112zm30.5 15.86L924.868 194l-7.783-19.826L939.211 169l6.874 18.86zm1.27-.86l-4.27-11.378L961.898 171l4.187 10.741-18.73 5.259zm8.89 24l-8.16-21.754L966.744 184l8.341 21.435-18.84 5.565zm41.84 54.376A22429.56 22429.56 0 0 1 978.392 271l-21.307-57.369L975.97 208l22.116 57.376zm18-4.972c-5.368 1.56-10.653 3.094-15.842 4.596l-22.158-58.174 15.99-4.826 22.01 58.404zm17-43.517L1007.71 227l-9.624-25.847L1024.78 193l8.305 23.887zM1026.364 190l-6.279-18.004 21.929-5.996c.652 6.989 1.015 13.163 1.071 18.91l-16.721 5.09zm11.827 34l-11.106-31.225 16-4.775c-.048 12.347-1.628 22.885-4.894 36zm30.894-42.634l-25.852 72.01c-4.086 1.22-8.145 2.432-12.148 3.624 4.987-14.51 8.527-25.348 9.696-30.056 3.68-14.821 5.416-26.306 5.402-40.028l22.385-6.916.517 1.366zm1.504-4.538l-.567.172-16.937-44 33 1.291-15.496 42.537zm5.496-1.828l14.396-40 14.604 31.062-29 8.938zm44 21.408L1100.48 202l-11.394-28.767 17.35-5.233 13.65 28.408zm1.7-.408l-13.7-28.412 31.916-9.588 11.084 29.675-29.3 8.325zm35.3 8.914L1129.996 213l-6.91-14.686 28.562-8.314 5.437 14.914zm50.287-.86c-14.758 4.347-29.456 8.67-44.01 12.946l-4.419-11.831v-.004l-5.858-15.686 58-16.479a56004.2 56004.2 0 0 1-3.713 31.054zm2.545 94.509L1260.283 280l7.802 24.094L1209.117 329c-.117-8.713.075-18.867.8-30.437zm-58.832 89L1200.923 370l3.162 7.888L1154.001 395l-2.916-7.438zm-2.89 2.437l2.89 7.442L1082.796 421c-.91-2.27-1.814-4.526-2.71-6.769L1148.193 390zm-76.11 2.605c.083-.006.166-.01.246-.035l69.965-20.57 5.79 14.79-68.578 24.21c-2.529-6.267-5.006-12.409-7.423-18.395zm-55 44.054L1076.398 415c.89 2.282 1.787 4.578 2.687 6.889L1019.455 443l-2.37-6.341zm-41.23 15.586L1014.717 438l2.37 6.364-44 15.636 2.77-7.755zm-36.77-48.502l1.82-23.743 27.429 2.78 6.751 18.14-16.362 5.08-19.638-2.257zm-26.114.257l43.114 4.95-46 35.05 2.886-40zm-47.886 6.69l2.796-11.69 42.204 4.674-.997 13.326-44.003-6.31zm-.353 2.31l44.353 6.426-.928 12.574-46.072-7.829L864.732 413zm-44.114-7l42.467 6.457L860.482 424l-41.397-7.382L820.618 406zm-13.315-14l12.782 1.644L815.183 426l-13.098-2.859L807.303 392zm-19.77-3l17.552 2.321L799.926 423l-17.84-4.005L787.532 389zm-15.468-43l20.02 2.436L785.18 386l-20.095-2.625 6.98-37.375zm-17.37-2l15.39 1.924L763.341 383l-15.256-2.046 6.61-36.954zm-11.075-1l8.465 1.07-6.55 36.93-8.45-1.145L743.62 343zm-12.626-2l10.091 1.257L734.482 379l-10.397-1.389 6.91-36.611zm-18.817-2l14.908 1.823-6.95 36.177-15.05-1.975c2.282-11.599 4.678-23.758 7.092-36.025zm-40.092 16.503l2.64-14.503 31.36 4.254L703.138 360l-31.053-4.497zm-.54 1.497l31.54 4.675c-.878 4.507-1.747 8.951-2.6 13.325l-31.4-4.157 2.46-13.843zm-1.46.491L667.647 371l-23.562-3.07 2.077-13.93 23.923 3.491zM648.278 337l24.807 3.342L670.4 355l-24.314-3.496L648.278 337zm-24.863-24l25.67 3.598L646.26 335l-26.174-3.472 3.33-18.528zm-2.33-.76L617.847 331l-22.762-3.144L598.87 309l22.215 3.24zm27.923 1.76l-19.923-2.893L633.968 291c5.931.726 11.976 1.464 18.117 2.212L649.008 314zm32.077-16.916L677.254 318l-25.169-3.579L655.173 294c8.519 1.017 17.188 2.05 25.912 3.084zm1.47-10.084c-8.797-1.059-17.643-2.128-26.47-3.197L659.93 258l27.156 3.9-4.53 25.1zm37.029-7l-32.499-3.27 2.52-13.73 32.48 4.59-2.501 12.41zm33.501-8.383l-1.44 10.868v.005L749.987 295c-8.709-1.023-17.702-2.086-26.902-3.178 1.639-8.248 3.232-16.246 4.738-23.822 8.346 1.196 16.885 2.418 25.262 3.617zm31-14.328L781.944 274l-53.859-7.813c1.11-5.665 2.176-11.08 3.177-16.187l52.823 7.29zm1-14.223L783.656 254l-52.57-7.112c.617-3.098 1.21-6.06 1.777-8.888l52.222 5.066zm-19-28.066l-3.074 23-28.926-2.859 2.482-12.644L766.085 215zm-27.632-6.146L767.09 202l3.994 10.062-4.79 1.223-.015.005-30.195 7.71a13025.3 13025.3 0 0 0 2.368-12.146zm28.632-8.42L739.573 207c.206-1.057.35-1.802.41-2.13 1.013-5.311.029-12.143-.898-16.69 6.657-1.819 13.582-3.902 20.663-6.18l7.337 18.433zm19-5.41L769.351 199l-7.266-18.167a715.13 715.13 0 0 0 17.18-5.833l6.82 20.024zm-.04-6.024l-4.96-14.603c18.851-6.73 37.888-14.292 54.929-21.397l1.071 21.832L786.045 189zm6.382 18l-5.342-15.762L838.198 177l.887 18.11L792.427 207zm26.658 2.413l1.417-7.655a.86.86 0 0 0-.02-.381l17.94-4.377.663 13-20-.587zm-2 14.836l2.21-12.249 20.122.605.668 13.395-23-1.751zm24 21.751l-27-2.668 3.08-17.332 23.027 1.778.893 18.222zm25-34.815L842.17 218l-1.085-21.698L857.2 189l8.885 22.185zM864.282 201l-5.197-13.211L886.803 175l2.282 17.85-24.803 8.15zm3.799 9l-2.996-7.238L889.92 195l1.165 8.656L868.081 210zm26.004 20.154L878.07 235l-8.984-22.693L890.973 206l3.112 24.154zm36-10.144l-33.82 9.99-3.18-24.091L921.2 198l8.886 22.01zm3.688-2.01l-8.688-21.974L946.061 190l8.024 21.87-20.312 6.13zm23.014 59l-22.702-56.826L954.76 214l21.326 57.507c-6.64 1.895-13.068 3.724-19.298 5.493zm35.298 39.875L972.353 322l-8.542-21.91-4.726-12.126c6.67-1.92 13.563-3.911 20.656-5.964l12.344 34.875zm20-14.01a9834.532 9834.532 0 0 1-11.42 31.135l-18.58-52.272c6.446-1.86 13.054-3.772 19.8-5.728l10.2 26.865zm9-26.57a5634.957 5634.957 0 0 1-8.653 23.705l-9.347-24.393c5.252-1.51 10.587-3.047 15.992-4.607l2.008 5.296zM1019.534 259l-11.449-29.97 25.817-10.03 3.183 8.92c-1.583 5.444-5.083 15.667-9.798 28.854l-7.753 2.226zm10.8 28l-5.249-14.534c.458-1.328.907-2.639 1.349-3.93 3.849-1.167 7.734-2.346 11.651-3.536l-7.75 22zm26.751-1.703l-24 6.703 10.386-27.8 4.18-1.2 9.434 22.297zm34-46.808a36478.48 36478.48 0 0 1-43 12.511l23.285-63 19.715 50.489zM1087.7 225l-15.614-40.777 2.402-6.623 11.77-3.6 11.677 29.919c.165.42.611.685 1.092.685.12 0 .242-.017.36-.05l20.715-5.996 6.984 14.751L1087.7 225zm46.386.87c-13.795 4.116-27.39 8.167-40.723 12.13l-4.277-11.175 39.85-11.825 5.15 10.87zm2.073-.87l-5.073-10.873 26.979-8.127 4.021 11.138c-8.701 2.64-17.352 5.266-25.927 7.862zm32.927 10.816L1143.344 243l-3.259-8.65c8.52-2.448 17.05-4.899 25.565-7.35l3.435 8.816zm1.45.184l-3.45-9.252c13.076-3.933 26.11-7.86 39-11.748-.436 3.732-.87 7.409-1.294 11.01l-34.256 9.99zm6.369 14l-4.819-12.613 33-9.387c-.607 5.008-1.194 9.867-1.763 14.541L1176.904 250zm7.552 22l-7.37-19.558 26-7.442c-.947 7.9-1.834 15.246-2.642 21.89l-15.988 5.11zm13.188 21.7l-4.398 1.3-8.16-21.288 15-4.712a505.609 505.609 0 0 0-2.442 24.7zm.678 63.3c.681 5.784 1.39 9.562 1.763 11.339L1149.995 386l-3.91-9.976L1198.322 357zm-60.237-1.878L1196.867 337c.265 6.937.722 12.76 1.218 17.463L1145.356 374l-1.464-3.8-.002-.002-5.805-15.076zM1071.407 391c-1.813-4.586-3.59-9.07-5.322-13.45l69.611-21.55 5.39 14.049-69.455 20.837c-.086.025-.151.074-.224.114zm-62.322 28.271l60.93-18.271 5.07 12.669-59.96 21.331-6.04-15.729zm-15.361-18.612l5.382-1.659 13.98 36.725-37 13.275 17.638-48.34zM988.69 371l5.395 14.04-4.037 11.221L978.085 400c3.306-9.017 6.887-18.807 10.605-29zm-23.605-1.305L986.532 364l1.553 3.903c-4.125 10.923-8.11 21.439-11.778 31.097l-11.222-29.305zM941.963 367l20.842 2.556 4.28 11.444-26-2.62.878-11.38zm-25.878-4.914L918.44 329l23.646.844L939.424 365l-23.339-2.914zm-2 13.618l.896-11.704 24.104 2.797-.913 11.203-24.087-2.296zm.661 2.296l23.34 2.386L936.291 404l-23.207-2.695L914.746 378zm-40.66-5.921L877.05 359l36.034 4.512-.884 12.488-38.116-3.921zm.107 1.921l37.892 3.849L910.423 401l-41.338-4.766L874.193 374zm-26.108 19.929L855.872 357l19.213 2.321L866.467 396l-18.382-2.071zm-26.414.071l44.414 5.045L863.298 411l-43.213-6.356L821.671 394zm-8.51-42l11.924 1.47L819.56 391l-12.475-1.652L813.161 352zm-19.137-3l17.061 2.022-6.26 36.978-17.74-2.256L794.024 349zm-14.318-40c6.766.788 13.256 1.537 19.38 2.236L792.545 347l-19.46-2.384 6.62-35.616zm-18.157-3c5.307.639 10.502 1.261 15.536 1.86L770.501 344l-15.416-1.925L761.55 306zm18.536-19.465L778.655 298c-8.428-1.012-17.32-2.091-26.57-3.222l1.5-11.778 26.5 3.535zm-.22-1.535l-26.78-3.375 1.296-9.625 26.704 3.76-1.22 9.24zm8.083-41l23.137 2.272L805.59 277c-6.036-.869-13.372-1.924-21.505-3.096L787.948 244zm35.13 2.958V279c-.07-.01-.15-.017-.215-.027l-14.778-2.117L813.63 246l9.455.923c0 .013-.008.023-.008.035zm-18.993 53.899L807.952 279l14.545 2.118c.177.025.396.045.588.069V303a4488.144 4488.144 0 0 1-19-2.143zm14 11.934L812.02 349l-16.934-2.028L801.807 311a4999.23 4999.23 0 0 0 16.278 1.79zm13 1.45L825.47 351l-12.384-1.473L819.251 313c4.26.456 8.205.868 11.834 1.24zm5-32.909L832.786 304c-2.4-.26-4.978-.544-7.7-.847V281c3.829.285 8.696.33 11 .332zm.403-1.332c-2.19-.002-7.491-.036-11.403-.326V248l16 1.553L836.488 280zm6.892-31.296L865.552 242l21.533 55.968c-18.11 4.95-29.486 7.823-32.188 8.032-2.18 0-9.186-.629-19.812-1.737l8.295-55.56zm22.109-9.553h-.002l-.002.001L843.338 246l-1.253-25.93L866.1 213l8.985 23.183-9.596 2.968zm36.302 12.494l15.294 38.626A4067.87 4067.87 0 0 1 889.49 298l-21.404-55.886L894.803 234l6.988 17.645zm14.294-6.347L902.841 249l-6.756-16.941L909.543 228l6.542 17.298zM921.35 252l-9.264-24.527L930.212 222l9.873 24.982L921.35 252zm5.097 15l-4.36-11.886 18.55-5.114 4.45 11.594-18.64 5.406zm6.74 18l-6.1-16.597L945.753 263l6.331 16.458c-6.572 1.934-12.87 3.78-18.899 5.542zm8.022 21l-4.123-11.231c6.31-1.836 12.892-3.762 19.725-5.769l4.275 11.204L941.208 306zm8.46 22l-7.583-20.282L962.051 302l8.034 20.679L949.668 328zm-1.477 2.123L962.085 368l-20-2.499L944.77 330l3.422.123zm-29.154-16.251l20.55-5.872 7.498 20-29-1.016.952-13.112zM934.832 295l4.253 11.306-20 5.694.932-12.813A7226.53 7226.53 0 0 0 934.832 295zm-15.92-6l-14.827-37.38 12.881-3.62 14.12 37.538c-4.205 1.2-8.264 2.352-12.174 3.462zm-32.827 32l3.15-13.204c8.38-2.22 18.064-4.84 28.85-7.796l-.92 12.357-31.08 8.643zm-3 17.459l3.26-14.435 30.74-9.024-1.907 27-32.093-3.541zm-.931 1.541l32.931 3.554L913.751 362l-35.666-4.384L882.154 340zm-22.516-3l19.447 2.156L875.073 357l-18.988-2.399L859.638 337zm23.447-12L880 338l-19.914-2.088v-4.494l23-6.418zm-24.18 3.892c-.476.137-.797.529-.797.97l.014 5.138-27.037-2.935 2.666-18.149c11.247 1.19 18.815 1.877 21.252 1.877 2.5 0 13.973-2.84 32.082-7.793l-3.137 13.658-25.043 7.234zm-5.82 27.242L845.432 393l-23.347-2.676L827.597 353l25.488 3.134zm-25-5.3L830.632 334l27.453 2.893L854.448 354l-26.363-3.166zm157 11.508L964.222 368l-14.137-37.69L970.53 325l14.556 37.342zm3.878 2.658l-.873-2.251v-.002l-15.005-38.658L992.593 319l6.492 18.423c-3.392 9.276-6.797 18.546-10.122 27.577zm9.122 29.378l-2 .622 1.083-3 .917 2.378zm7-38.783L995.515 382l-5.43-14.032c3.235-8.806 6.554-17.876 9.873-26.968l5.127 14.595zm13-35.307L1006.375 352l-5.29-14.787c3.912-10.534 7.802-21.055 11.537-31.213l5.463 14.288zm1.445-3.288l-5.445-14.38c2.986-8.21 5.851-16.144 8.532-23.62l5.468 14.597L1019.53 317zm40.555 58.736L1043.342 381l-21.257-57.37 8.456-23.63c4.536 11.614 15.51 39.72 29.544 75.736zm7-65.876l-24.804 8.14a39345.65 39345.65 0 0 0-9.196-23.71l24.806-7.29 9.194 22.86zm30.777-51.272v.001l5.223 13.737L1059.384 285l-9.299-22.816c14.402-4.291 29.166-8.7 44.133-13.184l3.644 9.588zm2.526-2.588l-3.303-8.723a38170.71 38170.71 0 0 0 40.75-12.277l3.25 9.065L1100.388 256zm45.697 3.616L1105.935 271l-4.85-12.471L1141.442 247l4.643 12.616zm1.745-1.616l-4.745-12.673 26.09-7.327 4.91 12.683L1147.83 258zm8.555 23l-7.3-20.465 25.768-7.535 7.232 19.606-25.7 8.394zm8.336 23l-7.636-20.77 25.967-8.23 8.033 21.132-26.364 7.868zm-33.06 35.85l-2.576-6.73c.012-.003.023-.002.035-.005L1168.57 322l6.515 17.977L1136.314 352l-4.652-12.15zm-43.576 14.109L1129.827 341l4.258 11.129L1092.614 365l-4.529-11.041zm-12-23.705L1050.55 338c-2.753-6.972-5.254-13.312-7.464-18.907L1068.2 311l7.886 19.254zm36-34.927L1069.347 309l-9.262-22.453L1103.88 274l8.206 21.327zm2.238-.327l-8.238-21.383 40.6-11.617 7.4 20.293L1114.323 295zm4.953 11.859c-.098.032-.173.089-.251.141l-3.94-10.29 39.529-12.71 3.471 9.579-38.81 13.28zm3.932 9.141l-3.123-7.921c.134-.003.267-.022.399-.064L1159.626 295l3.46 9.272L1123.207 316zm5.707 15l-4.83-12.375 39.14-11.625 4.86 13.16-39.11 10.814c-.024.006-.037.02-.06.026zm-50.842-1l-7.988-19.253L1113.302 297l7.783 20.117L1078.073 330zm43.266-11l7.746 20.14L1087.44 352l-8.354-20.266L1121.34 319zm-70.254 21.646l25.37-7.646 13.63 33.048-25.757 7.952c-4.818-12.142-9.278-23.371-13.243-33.354zM1000.09 394l-2.004-5.156 22.52-61.844 20.48 54.334L1000.09 394zm61.24-14c2.504 6.319 5.095 12.865 7.756 19.594L1008.43 418l-7.345-19.362L1061.33 380zm134.862-46.868L1177.208 339l-6.85-18.838.001-.003v-.002l-5.274-14.5 32-9.657c-.98 14.514-1.15 26.9-.894 37.132zM791.085 222.113l1.695-13.353 26.305-6.76-3.863 22-24.137-1.887zm23 3.713L811.007 243l-22.922-2.245L790.252 224l23.833 1.826zM774.013 211l-3.928-9.976 16.69-4.024 3.31 9.863L774.013 211zm16.072-2l-4.022 31-20.978-2.051 3.168-23.464L790.085 209zm-7.447 77.444L783.966 276l21.12 3.087-3.86 21.913a8387.01 8387.01 0 0 1-20.14-2.35l1.55-12.2a.002.002 0 0 0 .002-.003v-.003zM750.535 305c2.88.349 5.726.692 8.55 1.03l-6.46 35.97-8.54-1.066 6.45-35.934zm-12.49-1c3.38.4 6.722.79 10.04 1.18L741.442 341l-10.357-1.25 6.96-35.75zm-16.9-3c5.021.608 10.008 1.208 14.94 1.8l-6.904 36.2-15.096-1.861c2.372-12.127 4.753-24.315 7.06-36.139zm-36.06-14.03l1.55-8.97 32.45 3.466c-.595 3.133-1.197 6.319-1.809 9.534a25885.629 25885.629 0 0 1-32.19-4.03zm-6 31.404L682.897 297c10.73 1.308 21.522 2.618 32.188 3.906-1.42 7.26-2.87 14.656-4.327 22.094l-31.673-4.626zm-.682 1.626l31.682 4.64-3.59 18.36-31.41-4.354L678.403 320zm-16.711 17l-12.607-1.781L651.852 316l13.233 1.976L661.692 337zm4.857-18l9.536 1.37L672.71 339l-9.624-1.309L666.55 319zm-63.517-31c9.176 1.096 18.913 2.26 29.053 3.465L627.204 311l-28.119-3.97 3.947-19.03zm-10.836-25l12.89 1.316L602.937 277c-4.335-.532-8.625-1.058-12.853-1.579L592.196 263zm14.89-12.048L605.404 261l-13.32-1.375L593.87 249l13.216 1.952zm-14.127-4.027h-.005l-14.869-2.182L582.87 225l28.215.316-3.99 23.684-14.136-2.075zm-2.874 15.586L587.931 275c-5.383-.65-10.676-1.294-15.846-1.921L575.07 261l15.015 1.511zm-15-4.085l2.74-11.426 14.26 2.113L590.264 260l-15.179-1.574zm395 195.574l-2.797 7.505L954.085 466l2.74-7.342 13.26-4.658zm-12 2l1.4-3.843c.228-.612 7.326-19.586 17.246-46.336L989.085 402l-17.93 49.294-13.07 4.706zm196-58.624L1203.583 380l4.502 11.547L1158.903 410l-4.818-12.624zM1125.368 444l-6.283-16.468L1157.7 413l6.386 16.777L1125.368 444zm14.78 39l-14.063-36.838L1164.658 432l14.427 37.88c-12.7 4.27-25.791 8.68-38.937 13.12zm53.937 23.558L1155.021 520l-12.936-33.078c13.26-4.372 26.475-8.717 39.295-12.922l12.705 32.558zm8 20.766L1163.6 541l-7.514-19.517L1194.661 508l7.424 19.324zm-18-54.391c18.01-6.059 35.177-11.814 50.479-16.933l12.521 32.21L1196.67 506l-12.584-33.067zM781.085 141l24.144-44 10.05 4.512c.003.001.003.003.005.003s.004 0 .004.002l27.797 12.478-62 27.005zm62-25l-5.679 25.578c-30.674 12.83-68.915 27.69-100.51 36.422l-1.81-14.947 108-47.053zm-133.498 89.85c-.368-1.563-1.274-7.149-1.968-11.551.628-.087 1.248-.164 1.878-.254 7.405-1.074 15.64-2.812 24.409-5.045.844 4.193 1.683 10.167.809 14.663-.327 1.678-2.697 13.573-6.246 31.337l-24.384-2.368c1.509-5.86 6.116-24.172 5.502-26.782zm-177.502 61.873L534.332 241l21.753 3.143L554.12 270c-6.564-.803-12.878-1.578-18.86-2.312a6.814 6.814 0 0 0-1.068-.046l-2.107.08zM533.5 279c5.232.655 31.786 3.972 67.586 8.395L597.15 307l-68.064-9.929 1.483-17.958 2.93-.113zm694.586 315.696L1189.333 608l-10.248-26.549 38.72-13.451 10.28 26.696zm9 22.8l-8.498 2.504-7.502-21.344 7.962-2.656 8.038 21.495zm-17-50.353l23.716-8.143 11.154 26.528c.025.062.091.092.13.146L1230.548 594l-10.463-26.857zm-244.91-415.267l6.91 18.665L966.018 175l-8.933-23.87 17.35-5.13c.461 1.392.844 2.555 1.14 3.444l-.416 1.216c-.136.398-.129.821.017 1.216zm-84.09-60.283L913.858 82l10.227 20.161L900.478 112l-9.393-20.407zm8 21.368L881.502 120l-10.417-18.48L889.52 93l9.565 19.961zm-220 21.52l15.88-.481 3.12 29.678-17.75 1.322-1.25-30.519zM698.483 166l.602 19.116a283.207 283.207 0 0 1-46.851 1.527l-1.149-17.054L698.483 166zm-234.398 4l71 .796L530.76 223l-65.153-.73-1.522-52.27zm1.486 131l.514 17.82-11.107.18-2.893-17.33 13.486-.67zm-18.454-30l-8.032-47 24.643.272 1.357 46.05-17.968.678zm17.445 10l.523 18.302-13.955.698-3.045-18.358 16.477-.642zm781.532 358l-7.009-19.419L1283.603 606l1.482 19.907-38.99 13.093zm40.305-4l1.686 22.443-30.718 9.557-7.282-19.965L1286.4 635zm-37.568 10l-1.746-4.618L1285.69 628l.396 5.087L1248.831 645zm-49.746-600.374l.557-8.347 28.443-.279c-.31 2.692-.659 5.698-1.04 9l-27.96-.374zm-51-1.251l2.35-6.933 46.65-.442-.554 8-48.446-.625zm-32 .241l1.243-6.32 30.757-.296-2.35 7-29.65-.384zm81.213 2.478l.018.002h.002l28.767.388c-1.154 10.06-2.588 22.53-4.198 36.516l-112.802-.164 7.16-37.836 81.053 1.094zm-606.213 56.154L607.752 87l9.941 4.028.392 34.972-27-23.752zm26.86 27.053l.14 12.699-37-29.692L589.93 104l28.015 25.3zM397.085 169l64.464.718L463.085 222l-54.91-.61c-.299-1.635-.52-2.741-.648-3.185-.687-2.373-5.2-23.883-10.442-49.205zm-52 1.668l48.25-1.668c5.26 25.847 9.822 47.953 10.533 50.457.19.663.612 2.982 1.217 6.598L351.945 231l-6.86-60.332zm-67 2.522l64.107-2.19 6.893 59.917L293.804 236c-4.25-18.29-10.232-43.15-15.719-62.81zm-4.904-.19c6.923 25.244 14.824 59.752 18.904 78-13.508-12.541-23.07-21.391-24.639-22.78-3.71-3.287-15.222-7.848-40.602-17.47-6.164-2.336-12.406-4.704-18.297-6.998l-1.462-28.453L273.181 173zm-67.384-17.349a.893.893 0 0 0-.105-.372l-16.607-31.138c13.414-.617 35.49-1.358 61.988-2.141 5.333 10.583 9.702 18.974 11.9 22.588 2.286 3.757 5.548 13.657 9.112 26.19L206.708 173l-.91-17.349zm-21.661 20.045l20.526-.696 1.423 27c-8.908-3.41-16.85-6.616-22.273-9.26-6.484-3.164-12.872-7.73-18.727-13.132l19.051-3.912zm-3.701-51.37c1.633-.103 3.641-.213 5.926-.326l16.827 31.86.897 17.238-20.272.696a1.231 1.231 0 0 0-.22.027L163.5 178c-10.192-10.021-18.487-22.636-22.221-34.756-.768-2.492-1.866-7.149-3.194-13.369 18.47-2.927 33.572-4.991 42.35-5.549zM172.075 96l9.01 17.31c-.602.035-1.2.069-1.731.102-9.286.573-25.014 2.652-44.125 5.588-1.27-6.13-2.671-13.126-4.144-20.654L172.075 96zm-.99-2.334L130.957 96a4595.422 4595.422 0 0 1-5.872-31.247L151.28 55l19.806 38.666zm2.141.334l-20.14-39.953L190.218 40l22.866 51.644L173.226 94zm72.86 16.778c-27.597.825-49.992 1.596-62.077 2.222l-8.924-17.413 61.7-3.587a3739.1 3739.1 0 0 0 9.3 18.778zM257.306 50l11.778 22.268L238.537 84a7720.363 7720.363 0 0 1-10.452-21.86L257.307 50zm-12.312-21l10.09 18.925L225.787 60a8813.101 8813.101 0 0 1-9.702-20.286L244.995 29zm-.91-1.616L215.193 38c-1.739-3.622-2.778-5.79-2.845-5.93l-.263-.56L239.58 19l4.505 8.384zm27-24.72L241.661 16l-20.576-38.124L254.168-33l16.917 35.665zM273.533 2l-8.448-18.23L293.555-27l7.53 16.218L273.533 2zm35.552 4.97L280.505 18l-6.42-14.013L301.755-9l7.33 15.97zm2.362-.97l-7.362-15.684 5.05-2.316 7.95 15.872L311.447 6zm13.638 14.475L318.998 23l-6.913-14.804L317.877 6l7.208 14.475zM327.296 19l-7.21-13.91L334.041 0l7.043 13.509L327.296 19zm14.624-4l9.165 17.894L336.943 38l-8.858-17.393L341.92 15zm3.78-3l-3.615-7.192L379.88-9l3.206 5.569L345.7 12zm4.519 10l-4.134-8.261L384.025-2l5.06 8.836L350.22 22zm6.553 13l-5.687-11.146L389.908 9l6.177 10.582L356.772 35zm45.313-5.482L362.036 45l-3.95-8.04L397.294 21l4.79 8.518zm2.822-.518l-4.822-8.516L430.95 8l6.135 8.64L404.907 29zm3.413 7l-3.235-5.633L437.722 18l3.363 4.672L408.32 36zm20.828 6.094a1.25 1.25 0 0 0-.512.082 1.093 1.093 0 0 0-.439.33L415.571 48l-5.486-9.573L443.038 25l1.263 1.758 4.784 6.66-19.937 8.676zm11.937-3.433L449.66 35l12.425 16.98L452.013 56l-10.928-17.339zm-1 23.59L451.034 58l11.051 17.058L448.635 78l-8.55-15.748zm-13 6.204L438.644 64l8.441 15.434L435.27 82l-8.185-13.545zM422.081 107l-.996-22.758L434.006 84l11.08 22.455-23.005.545zm-34.996 11.731c26.93-.66 52.156-1.258 72.514-1.731l1.486 51-64.094-.723a31737.132 31737.132 0 0 1-9.906-48.546zm-48 1.367c14.804-.377 29.646-.746 44.057-1.098 3.043 14.854 6.614 32.246 9.943 48.355L344.732 169l-5.647-48.902zm-2.622-.098l5.622 48.807-64.3 2.193c-3.747-13.253-7.225-23.85-9.701-27.934-2.034-3.357-6.045-11.063-10.999-20.91 24.183-.707 51.67-1.445 79.378-2.156zM312.07 88l19.015 20.845c-27.968.713-55.528 1.45-79.568 2.155a3650.98 3650.98 0 0 1-9.432-18.948L312.07 88zm-34.985-.174L240.986 90c-.635-1.335-1.268-2.672-1.9-4.007L269.874 74l7.21 13.826zM287.985 38l15.1 32.626L276.071 80l-15.986-30.359L287.985 38zm-4.996-11l4.096 8.573L258.807 47l-4.722-8.686L282.99 27zm-.904-1.524L253.058 37l-9.973-18.605L272.436 5l9.65 20.476zm6.34 9.524l-7.34-15.3L310.127 9l6.958 14.468L288.425 35zm34.66.927L293.992 47l-4.907-10.314L317.877 25l5.208 10.927zM328.321 42l-8.236-17.463L326.27 22l8.815 17.53-6.764 2.47zm12.764 10.364L334.325 55l-5.24-11.537L335.58 41l5.505 11.364zM343.89 51l-5.804-11.029L352.317 35l5.768 10.9L343.89 51zm24.196 16.013L343.9 75l-8.814-18.405 8.151-3.015c.002-.002.004 0 .006-.002.002 0 .002-.002.004-.003L358.316 48l9.77 19.013zm16-5.63L372.966 66l-9.88-18.836L374.58 43l9.505 18.383zm12-6.112l-3.245 1.417c-.004.002-.006 0-.01.002-.005.001-.007.006-.013.006L385.25 60l-9.165-18.634L387.55 37l8.536 18.271zM398.64 54l-8.554-18.027L403.347 31l3.751 6.468v.001c0 .002.002.002.002.002l5.985 10.322L398.64 54zm20.446 3.903l-19.909 8.087c-.006.004-.01.008-.015.01l-4.076-8.042L414.323 50l4.762 7.903zM407.081 83c-.015-.078-.017-.157-.054-.231l-2.942-6.114L425.355 69l7.73 13.51-26.004.49zm12.614 15l.39 9.134c-11.164.273-22.923.563-35.011.866l-1.989-10h36.61zm-1.119-13l.51 11h-36.794c-.903-4.22-1.656-7.737-2.207-10.318L418.576 85zm-18.49-16.847c.043-.011.092-.008.136-.026L420.059 60l4.026 6.74L403.022 74l-2.937-5.847zM379.843 83l-.617-3.068a1.85 1.85 0 0 0-.161-.464l-5.98-11.933L392.727 59l11.357 23.544-24.24.456zm-32.062 2.543L376.507 85c.956 4.77 2.579 12.86 4.578 22.806-15.346.382-31.155.784-46.878 1.194l-19.122-21.515 32.697-1.942zm-2.697-8.642L368.847 69l5.8 11.36c.085.411.236 1.147.438 2.139l-27.1.501-2.9-6.099zm-35 3.415L339.868 71l6.217 13.09L313.292 86l-1.075-1.185-2.132-4.499zm-15-31.267L323.677 38l2.496 5.316h.001l11.911 25.372L308.648 78l-13.563-28.951zm14.64 36.643c.041.088.096.172.161.246l.2.226L279.468 88l-3.384-6.461L303.424 72l6.302 13.692zm120.36-42.682l9.163-4.01 10.837 17.617L439.362 61l-9.277-17.99zm7 18.43L425.8 66l-4.515-7.834c-.004-.007-.002-.014-.005-.022-.004-.006-.014-.01-.018-.018l-5.177-8.98L427.984 44l9.101 17.44zm278.282 468.648l-37.78-5.557L691.977 466c13.747 4.726 31 8.096 50.528 11.897 18.966 3.693 39.92 7.777 61.58 13.826L786.448 567l-115.363-16.023 6.012-24.45 37.888 5.573c.066.008.13.013.192.013.554 0 1.044-.352 1.14-.85.104-.556-.32-1.08-.95-1.175zm219.718 37.168a85.829 85.829 0 0 0-3 2.744l1.631-4c.455.418.922.835 1.37 1.256zM934.64 550a267.804 267.804 0 0 0-8.554-7.77L936.358 514a731.592 731.592 0 0 1 7.727 10.037L934.64 550zm381.8 14l-14.354-36.885 15.022-5.115 14.978 37.39-15.647 4.61zm31.646 40.216L1333.923 609l-15.838-41.408 15.317-4.592 14.683 41.216zM1342.347 580l-6.262-17.101 23.653-6.899 6.347 16.669-23.738 7.331zm8.723 24l-7.985-21.665 23.893-7.335 8.107 21.16-24.015 7.84zm1.795 7l-1.78-4.938 24.15-8.062 1.85 4.94-24.22 8.06zm1.22.953L1377.77 604l8.316 22.394-24.124 7.606-7.876-22.047zm-17 5.7l14.093-4.653 7.907 21.762-13.672 4.238-8.328-21.348zm-2-6.677l14.253-4.976 1.747 5.075-14.143 4.925-1.857-5.024zm.63 8.024l8.37 21.162-7.074 2.163h-.002l-8.754 2.675-8.17-20.912 15.63-5.088zM1022.116 27l90.968 11.09-8.462 43.91-96.641-11.2-.897-.51L1022.117 27zm5.385-45l23.583 1.878L1050.18 26l-27.095-3.347L1027.502-18zm-4.773-3l-30.644-2.445L994.83-54l31.255 2.042L1022.73-21zM987.718 5l-43.633-21.858.782-7.142 45.218 3.496L987.718 5zm4.805-26l30.562 2.441L1018.801 21 990.085 6.13 992.523-21zm-299.042-7l71.604 26.743L750.72 35 677.085 6.664A6106.12 6106.12 0 0 1 693.481-28zm-18.396-10.08L681.937-51l16.148 5.825c-.974 1.99-3.289 6.724-6.423 13.175l-16.577-6.08zm16 9.373A6693.973 6693.973 0 0 0 681.72-9l-17.635-6.543L674.226-35l16.86 6.293zM160.27 35.338l4.815 11.763L152.073 52l-8.09-15.972L142.085 22l19.422 3.78-1.294 9.103a.874.874 0 0 0 .057.455zM28.989 27.084C25.237 20.385 17.743 10.92 8.085 0c17.352 1.62 37.339 3.569 39.39 4.018.5.108 4.019.805 9.674 1.917L62.085 30.1 32.977 35c-1.365-2.947-2.699-5.614-3.988-7.916zM36.008-14L25.085-29.092 38.088-35l8.997 17.613L36.008-14zm5.077 13c-7.366-.769-18.74-1.833-28-2.68L34.38-10l6.706 9zm-4-10.615L48.015-15l8.07 16c-4.04-.804-6.517-1.303-6.924-1.391-.589-.13-2.199-.344-4.491-.61l-7.585-10.614zm-33-7.204L22.302-27l10.783 14.73L12.337-6 4.085-18.819zm1236.06 54.972L1356.085 35l-.279 12-116.72-1.574c.393-3.428.746-6.532 1.06-9.273zm.292-5.223c.878-7.634 1.494-18.91 1.919-31.93l23.73 2.15-1.48 32.354c-.003.09.026.171.047.256l-24.568.24c.124-1.086.245-2.121.352-3.07zm54.648-26.496l-.62 29.293-27.38.273c.011-.05.04-.095.042-.149L1268.563 2l26.522 2.434zm30 2.124v26.157l-29 .285.628-29 28.372 2.558zM1242.46-18l114.626 3.28-.521 22.72-114.479-10.56c.15-4.95.272-10.128.374-15.44zm.845-18l69.596 2.527h.012l40.876 1.484 78.297 5.104c-.017.067-.046.13-.046.2V-16l-72.233-1.997a1.17 1.17 0 0 0-.96-.506c-.451.014-.781.192-.98.452l-114.78-3.176c.09-4.851.162-9.799.218-14.773zm-.088-44l25.87 2.324V-37l-26-.976c.144-14.528.163-29.156.13-42.024zm27.87 3l15 1.32-.648 39.68-14.353-.528V-77zm17.64 2l24.36 2.134L1311.654-35l-23.57-.862.641-39.138zm26.766 2l39.593 3.5-2.676 35.5-38.324-1.413L1315.492-73zm116.593 87l-31-2.782.89-25.218 30.11.838V14zm-32.88-3l-40.12-3.597.528-22.403 40.472 1.124-.88 24.876zm-.774 21.608l-39.346.392.531-23 39.47 3.635-.655 18.973zM1397.572 49l-39.487-2.253.283-12.346 39.717-.401-.513 15zm-41.023-16.281l-28.464.281V7l29 2.637-.536 23.082zM9.85-89.5l8.487 16.625L.415-62.5l-.33-.459v3.792l10.224 14.14L.085-39.549v2.375l11.463-6.142 9.841 13.612L3.301-21.48.085-26.538v4.162l1.164 1.831-1.164.528v2.283l2.289-1.04L10.455-6.06l-2.586.791-3.87-.358A589.903 589.903 0 0 0 .084-9.91V6.416l.171.193-.17.12v2.605L1.66 8.22c7.855 9.048 13.882 16.813 17.01 22.403 2.565 4.581 5.337 10.693 8.227 17.835h-7.49l-7.885-20.312a.998.998 0 0 0-.177-.287L.086 14.943v3.34l9.303 10.672 8.093 20.842c.16.411.6.687 1.095.687h9.135c.94 2.369 1.891 4.843 2.853 7.404L.085 60.799v2.04L31.3 59.855a706.88 706.88 0 0 1 5.694 16.006L.085 80.677v2.05l37.576-4.903c6.102 17.894 12.273 37.68 17.85 55.628A7687.78 7687.78 0 0 0 .086 143.885v10.39c17.766-3.41 37.997-7.238 58.48-11.008 8.674 27.85 13.92 44.041 17.187 48.903 8.1 12.049 137.69 72.09 180.183 91.552l54.057 99.59c-2.054-.094-4.107-.19-6.169-.259a6.491 6.491 0 0 0-2.937.59c-59.804 27.809-151.38 69.94-158.535 72.028-4.446 1.08-25.793-6.409-45.686-16.035-2.797-1.353-6.319-.466-7.868 1.98a4.526 4.526 0 0 0-.701 2.814L.086 484.883v4.576l90.172-41.445c.251.176.513.346.802.487 12.719 6.157 43.538 20.121 54.937 16.787 10.128-2.954 138.298-62.461 158.938-72.056 81.33 2.977 156.156 26.615 166 29.832l44.945 38.612 35.833 107.92-18.357 75.935c-8.272 18.534-21.05 46.854-22.827 49.964-1.342 2.35-5.023 14.012-13.73 42.075-.964 3.106-1.945 6.268-2.928 9.43h12l2.102-6.775c5.5-17.731 11.737-37.826 12.912-40.2 2.477-4.332 19.532-42.468 23.002-50.235l26.932 7.261-2.692 55.183c-.025.479.338.906.87 1.025l46.306 10.397L609.518 747h11.848l17.023-68.692 54.073 12.854-16.4 55.838h2.39l3.6-12.252 53.597 12.192-.02.06h4.775l11.926-41.607 91.616 21.775L836.034 747h2.452l7.699-19.298 22.802 5.418-4.915 13.88h4.85l4.537-12.817L927.376 747h44.168l-19.116-4.544 32.081-73.31 20.485 3.92c7.501 14.554 13.434 25.216 19.954 31.15 14.11 12.84 58.895 24.675 92.957 30.908 22.27 4.074 43.728 6.626 62.99 7.639L1178.72 747h5.079l2.048-3.995c20.166.795 37.66-.193 50.704-3.048 17.934-3.922 37.764-6.835 56.453-8.986l1.199 16.029h11.602l-1.29-17.275c29.625-3.021 54.478-4.127 61.11-4.384 4.546 2.477 19.148 10.684 34.05 21.659h17.465c-21.272-17.586-45.561-30.371-47.026-31.135a6.31 6.31 0 0 0-3.174-.713c-.457.015-28.483.941-63.182 4.456l-1.524-20.397 74.28-1.259 63.57 42.513v-12.751l-54.51-36.456 23.205-6.71c.023-.007.038-.02.059-.029.02-.007.038-.003.06-.012l19.847-7.91 11.34 29.846v-6.423l-9.223-24.265 9.222-3.676v-2.225l-9.953 3.969-19.999-52.633 12.945-4.054 17.007 41.388v-5.987l-14.817-36.055 14.817-4.221v-2.132l-16.67 4.75c-.003.002-.007.006-.013.007-.006.002-.011 0-.017.002l-13.983 4.378-9.026-23.753c0-.002-.002-.004-.004-.005v-.01l-18.841-47 34.06-10.115 24.494 64.461v-6.422l-2.052-5.402c.084-.011.169-.013.251-.043l1.801-.644v-2.185l-2.674.954c-.035.012-.058.035-.087.05l-5.589-14.706 8.35-4.338v-2.349l-9.097 4.72-13.204-34.747 19.083-5.668 3.218 7.47v-5.744l-1.023-2.378 1.023-.304v-4.279l-2.66.79-17.782-41.286 20.442-7.016v-2.175l-89.577 30.735c-.012-.072-.01-.143-.04-.213l-5.143-12.131 79.611-43.361 15.15 20.017v-9.616l-1.105.82-10.31-13.627 11.414-8.827v-2.684l-12.697 9.818-14.287-18.877 20.875-15.212 6.11 7.716v-3.557l-4.325-5.461 4.324-3.152v-2.636l-5.647 4.116-13.405-16.933 19.052-13.831v-2.633l-20.375 14.793-16.278-20.562a2295.923 2295.923 0 0 0 26.239-16.887l10.414 12.637v-3.464l-8.56-10.388c2.963-1.944 5.807-3.827 8.56-5.665v-5.045a1165.653 1165.653 0 0 1-11.23 7.471l-14.14-17.158 25.37-15.77v-2.486l-26.724 16.613-11.54-14.002.127-.056 38.137-24.17v-2.493l-39.345 24.94-.282.125-18.6-22.572 46.93-36.632c3.698 4.15 7.503 8.383 11.297 12.583v-3.26a2630.352 2630.352 0 0 1-9.571-10.67l9.571-7.472v-2.715l-10.996 8.585a1614.015 1614.015 0 0 1-8.275-9.376c-.008-.01-.01-.023-.02-.032-.005-.007-.016-.01-.022-.017-4.453-5.088-8.483-9.777-11.881-13.843l14.987-11.437 16.207 17.683v-3.239l-14.46-15.777 14.46-11.034v-5.377l-4.368 3.334c-4.737-13.115-14.767-40.982-19.079-53.288 5.482-1.656 10.326-3.121 14.494-4.383l8.953.923v-10.201l-8.914-.92c-.066-.006-.127.002-.19-.003-.077-.006-.15-.023-.227-.027l-50.498-1.98-9.012-25.906 68.841 6.596v-2.04l-69.577-6.666-6.382-18.344 75.96 2.962v-2.028l-166.44-6.491c-.008 0-.015.003-.023.003-.01 0-.02-.003-.029-.003l-39.67-.06c1.616-13.928 3.048-26.311 4.194-36.243l118.612 1.592 41.772 2.34c.006 0 .011.004.019.004H1398.559l41.526 2.323v-2.024l-40.34-2.26.52-14.871 39.82-.395v-2.02l-39.75.392.651-18.692 39.1 3.56v-2.037l-6.137-.558v-40.335c0-.019-.012-.036-.014-.054l6.15.408v-2.031l-85.522-5.688 2.774-36.969c0-.013-.004-.022-.004-.035 0-.012.006-.02.006-.03V-93h-2.316v21.176l-39.991-3.548.658-17.628h-2.32l-.648 17.423-24.338-2.16.248-15.263h-2.318l-.242 15.058-43.334-3.844c-.014-3.94-.03-7.693-.05-11.214h-11.593c.017 3.217.035 6.612.046 10.184l-52.489-4.657.937-5.527h-2.34l-1.072 6.318-.002.007c-.002.002 0 .004 0 .005l-2.55 15.041c-11.836-.719-24.485-1.483-37.174-2.246L1139.653-93h-4.683l-3.154 18.846c-38.162-2.286-75.802-4.484-91.723-5.236-1.764-.084-3.77-.222-5.99-.405L1035.539-93h-4.654l-1.39 12.785c-21.27-2.09-56.955-7.427-90.451-12.785H913.55c11.359 1.873 23.55 3.85 35.806 5.78l-2.031 19.072-61.438-4.04L892.854-93h-2.413l-6.745 20.142L848.016-93h-4.271l39.271 22.17-6.12 18.276-54.997-28.353a3.033 3.033 0 0 0-.254-.113L790.054-93h-11.647l41.263 15.65 95.207 49.08L897.873-3.47 758.095-59.242 751.183-93h-4.706l6.565 32.066L644.648-92.9c.018-.033.035-.065.05-.099h-7.634l2.214.654a12537.56 12537.56 0 0 0-28.942 56.08c-57.88-21.64-129.903-48.578-133.44-49.97-2.087-.824-5.401-3.579-8.774-6.764h-3.142c3.912 3.805 8.182 7.513 10.968 8.61 2.025.798 26.355 9.917 57.628 21.618-2 3.753-9.421 17.637-10.953 19.85-1.19 1.716-1.085 8.268-.425 21.4.194 3.821.36 7.124.262 8.082-.098.952-1.108 7.259-2.454 15.5l-32.46 1.39-7.367-29.006a.97.97 0 0 0-.317-.5L402.782-93h-3.287l21.677 18.824-31.168 21.617-3.045-4.222L353.866-93h-2.962l9.815 10.74-21.973 19.129-10.295-17.872c0-.002 0-.002-.002-.003l-.002-.002L321.54-93h-2.59l6.908 11.98-22.395 9.647L292.59-93h-5.059l.947 1.882-36.895 11.288L245.747-93h-2.482l.03.072-26.133 7.846L213.096-93h-2.539l11.413 22.23-22.946 7.019L183.462-93h-2.555l6.676 12.546-22.944 8.545L154.8-93h-5.004l18.088 38.776-59.437 18.184L135.188-93h-2.506l-20.075 42.766L88.63-93H86.05l25.379 45.27-5.167 11.008L73.792-93H60.82l14.953 25.916-45.882 11.877-18.418-36.081v-.005l-.004-.002-.87-1.705H8.063l.84 1.65L.086-87.7v2.243l9.765-4.042z" mask="url(#f)"/>
        </g>
        <path fill="#1C212B" d="M-8 0h1448v747H-8z" opacity=".955"/>
        <g opacity=".7" transform="translate(-8 -17)">
            <use fill="#000" filter="url(#g)" xlink:href="#h"/>
            <use stroke="#FBAF19" stroke-width="3" xlink:href="#h"/>
        </g>
        <g opacity=".7" transform="translate(-8 -17)">
            <use fill="#000" filter="url(#i)" xlink:href="#j"/>
            <use stroke="#FBAF19" stroke-width="3" xlink:href="#j"/>
        </g>
        <g opacity=".7" transform="translate(-8 -17)">
            <use fill="#000" filter="url(#k)" xlink:href="#l"/>
            <use stroke="#FBAF19" stroke-width="3" xlink:href="#l"/>
        </g>
        <g opacity=".7" transform="translate(-8 -17)">
            <use fill="#000" filter="url(#m)" xlink:href="#n"/>
            <use stroke="#FBAF19" stroke-width="3" xlink:href="#n"/>
        </g>
        <g opacity=".7" transform="translate(-8 -17)">
            <use fill="#000" filter="url(#o)" xlink:href="#p"/>
            <use stroke="#FBAF19" stroke-width="3" xlink:href="#p"/>
        </g>
    </g>
</svg>
