<svg xmlns="http://www.w3.org/2000/svg" width="58" height="58" viewBox="0 0 58 58">
    <g fill="none" fill-rule="evenodd">
        <path fill="#FBAF19" d="M0 0h58v48c0 5.523-4.477 10-10 10H10C4.477 58 0 53.523 0 48V0z"/>
        <path fill="#EC9D00" d="M0 49h58a9 9 0 0 1-9 9H9a9 9 0 0 1-9-9z"/>
        <path fill="#FFF" fill-rule="nonzero" d="M35.114 27.628l6.554-4.662c.63-.45.301-1.404-.466-1.404l-8.117-.053a.797.797 0 0 1-.767-.53l-2.55-7.443c-.247-.715-1.289-.715-1.536 0l-2.55 7.443a.797.797 0 0 1-.767.53l-8.117.053c-.767 0-1.096.954-.466 1.404l6.554 4.662a.837.837 0 0 1 .301.874l-2.468 7.47c-.246.715.604 1.324 1.234.874l6.608-4.583a.85.85 0 0 1 .933 0l6.608 4.583c.63.45 1.48-.16 1.233-.874l-2.467-7.47c-.137-.318-.028-.662.246-.874z"/>
    </g>
</svg>
