<svg xmlns="http://www.w3.org/2000/svg" width="120" height="33" viewBox="0 0 120 33">
    <g fill="none" fill-rule="evenodd">
        <path fill="#FBAF19" d="M0 0h110c5.523 0 10 4.477 10 10v23H0V0z"/>
        <path fill="#FFF" fill-rule="nonzero" d="M20.822 17.704l3.025-2.136c.29-.207.139-.644-.216-.644l-3.745-.024a.368.368 0 0 1-.355-.243l-1.177-3.411c-.114-.328-.594-.328-.708 0l-1.177 3.411a.368.368 0 0 1-.355.243l-3.745.024c-.355 0-.507.437-.216.644l3.025 2.136a.382.382 0 0 1 .14.401l-1.14 3.424c-.114.327.279.607.57.4l3.05-2.1a.395.395 0 0 1 .43 0l3.05 2.1c.29.207.683-.073.57-.4l-1.14-3.424a.332.332 0 0 1 .114-.4zM39.822 17.704l3.025-2.136c.29-.207.139-.644-.216-.644l-3.745-.024a.368.368 0 0 1-.355-.243l-1.177-3.411c-.114-.328-.594-.328-.708 0l-1.177 3.411a.368.368 0 0 1-.355.243l-3.745.024c-.355 0-.507.437-.216.644l3.025 2.136a.382.382 0 0 1 .14.401l-1.14 3.424c-.114.327.279.607.57.4l3.05-2.1a.395.395 0 0 1 .43 0l3.05 2.1c.29.207.683-.073.57-.4l-1.14-3.424a.332.332 0 0 1 .114-.4zM58.822 17.704l3.025-2.136c.29-.207.139-.644-.216-.644l-3.745-.024a.368.368 0 0 1-.355-.243l-1.177-3.411c-.114-.328-.594-.328-.708 0l-1.177 3.411a.368.368 0 0 1-.355.243l-3.745.024c-.355 0-.507.437-.216.644l3.025 2.136a.382.382 0 0 1 .14.401l-1.14 3.424c-.114.327.279.607.57.4l3.05-2.1a.395.395 0 0 1 .43 0l3.05 2.1c.29.207.683-.073.57-.4l-1.14-3.424a.332.332 0 0 1 .114-.4zM77.822 17.704l3.025-2.136c.29-.207.139-.644-.216-.644l-3.745-.024a.368.368 0 0 1-.355-.243l-1.177-3.411c-.114-.328-.594-.328-.708 0l-1.177 3.411a.368.368 0 0 1-.355.243l-3.745.024c-.355 0-.507.437-.216.644l3.025 2.136a.382.382 0 0 1 .14.401l-1.14 3.424c-.114.327.279.607.57.4l3.05-2.1a.395.395 0 0 1 .43 0l3.05 2.1c.29.207.683-.073.57-.4l-1.14-3.424a.332.332 0 0 1 .114-.4zM96.822 17.704l3.025-2.136c.29-.207.139-.644-.216-.644l-3.745-.024a.368.368 0 0 1-.355-.243l-1.177-3.411c-.114-.328-.594-.328-.708 0l-1.177 3.411a.368.368 0 0 1-.355.243l-3.745.024c-.355 0-.507.437-.216.644l3.025 2.136a.382.382 0 0 1 .14.401l-1.14 3.424c-.114.327.279.607.57.4l3.05-2.1a.395.395 0 0 1 .43 0l3.05 2.1c.29.207.683-.073.57-.4l-1.14-3.424a.332.332 0 0 1 .114-.4z"/>
    </g>
</svg>
