<svg xmlns="http://www.w3.org/2000/svg" width="108" height="98" viewBox="0 0 108 98">
    <g fill="none" fill-rule="evenodd" transform="translate(1 1)">
        <g fill-rule="nonzero">
            <path fill="#FBAF19" stroke="#FBAF19" stroke-width="1.451" d="M38.53 0v6.655h1.903v18.062h25.674V6.655h1.897V0H38.53zm26.62 23.765H41.383V6.65h23.771v17.116h-.006zm1.903-18.062H39.48V.952h27.572v4.751z"/>
            <path fill="#DBDFE6" d="M58.019 8.558h-9.504v3.8h9.51v-3.8h-.006zm-.952 2.849h-7.6V9.504h7.606v1.903h-.006z"/>
        </g>
        <g fill-rule="nonzero">
            <path fill="#FBAF19" stroke="#FBAF19" stroke-width="1.451" d="M0 35.13v6.655h1.903v18.062h25.674V41.785h1.898V35.13H0zm26.62 23.765H2.855V41.78h23.77v17.116h-.005zm1.903-18.062H.952v-4.752h27.571v4.752z"/>
            <path fill="#DBDFE6" d="M19.49 43.688H9.984v3.8h9.51v-3.8h-.006zm-.952 2.849h-7.601v-1.903h7.606v1.903h-.005z"/>
        </g>
        <g fill-rule="nonzero">
            <path fill="#FBAF19" stroke="#FBAF19" stroke-width="1.451" d="M75.926 35.13v6.655h1.903v18.062h25.674V41.785h1.897V35.13H75.926zm26.62 23.765H78.78V41.78h23.772v17.116h-.006zm1.903-18.062H76.877v-4.752h27.572v4.752z"/>
            <path fill="#DBDFE6" d="M95.415 43.688H85.91v3.8h9.51v-3.8h-.006zm-.952 2.849h-7.6v-1.903h7.606v1.903h-.006z"/>
        </g>
        <g fill-rule="nonzero">
            <path fill="#FBAF19" stroke="#FBAF19" stroke-width="1.451" d="M38.53 71.393v6.655h1.903V96.11h25.674V78.048h1.897v-6.655H38.53zm26.62 23.765H41.383V78.042h23.771v17.116h-.006zm1.903-18.062H39.48v-4.752h27.572v4.752z"/>
            <path fill="#DBDFE6" d="M58.019 79.95h-9.504v3.801h9.51v-3.8h-.006zm-.952 2.85h-7.6v-1.903h7.606V82.8h-.006z"/>
        </g>
        <circle cx="53.828" cy="48.162" r="4.533" fill="#DBDFE6"/>
        <circle cx="53.828" cy="48.162" r="8.499" stroke="#FFAC00" stroke-width="1.133"/>
        <path fill="#DADFE7" fill-rule="nonzero" d="M75.418 81.457l4.466 1.98c.361.16.79.008.956-.338a.68.68 0 0 0-.352-.918l-2.978-1.32c4.11-.998 6.95-2.653 8.881-4.507 2.271-2.178 3.272-4.606 3.699-6.478.427-1.875.29-3.203.285-3.254-.04-.38-.393-.657-.789-.618a.73.73 0 0 0-.437.198.675.675 0 0 0-.207.559v.005c.01.098.106 1.318-.297 2.973-.404 1.657-1.298 3.742-3.273 5.637-1.741 1.669-4.334 3.207-8.248 4.154l1.328-2.819a.68.68 0 0 0-.36-.914.744.744 0 0 0-.806.141.693.693 0 0 0-.147.204l-2.075 4.404a.68.68 0 0 0 .354.911zM28.582 13.543l-4.466-1.98a.734.734 0 0 0-.956.338.68.68 0 0 0 .352.918l2.978 1.32c-4.11.998-6.95 2.653-8.881 4.507-2.271 2.178-3.272 4.606-3.699 6.478-.427 1.875-.29 3.203-.285 3.254.04.38.393.657.789.618a.73.73 0 0 0 .437-.198.675.675 0 0 0 .207-.559v-.005c-.01-.098-.106-1.318.297-2.973.404-1.657 1.298-3.742 3.273-5.637 1.741-1.669 4.334-3.207 8.248-4.154l-1.328 2.819a.68.68 0 0 0 .36.914c.28.122.6.056.806-.141a.693.693 0 0 0 .147-.204l2.075-4.404a.68.68 0 0 0-.354-.911zM15.543 67.418l-1.98 4.466a.734.734 0 0 0 .338.956.68.68 0 0 0 .918-.352l1.32-2.978c.998 4.11 2.653 6.95 4.507 8.881 2.178 2.271 4.606 3.272 6.478 3.699 1.875.427 3.203.29 3.254.285.38-.04.657-.393.618-.789a.73.73 0 0 0-.198-.437.675.675 0 0 0-.559-.207h-.005c-.098.01-1.318.106-2.973-.297-1.657-.404-3.742-1.298-5.637-3.273-1.669-1.741-3.207-4.334-4.154-8.248l2.819 1.328a.68.68 0 0 0 .914-.36.744.744 0 0 0-.141-.806.693.693 0 0 0-.204-.147l-4.404-2.075a.68.68 0 0 0-.911.354zM88.457 27.582l1.98-4.466a.734.734 0 0 0-.338-.956.68.68 0 0 0-.918.352l-1.32 2.978c-.998-4.11-2.653-6.95-4.507-8.881-2.178-2.271-4.606-3.272-6.478-3.699-1.875-.427-3.203-.29-3.254-.285-.38.04-.657.393-.618.789a.73.73 0 0 0 .198.437c.142.147.344.23.559.207h.005c.098-.01 1.318-.106 2.973.297 1.657.404 3.742 1.298 5.637 3.273 1.669 1.741 3.207 4.334 4.154 8.248l-2.819-1.328a.68.68 0 0 0-.914.36.744.744 0 0 0 .141.806c.058.06.126.11.204.147l4.404 2.075a.68.68 0 0 0 .911-.354z"/>
    </g>
</svg>
