<svg xmlns="http://www.w3.org/2000/svg" width="83" height="97" viewBox="0 0 83 97">
    <g fill="none" fill-rule="nonzero">
        <path fill="#FBAF19" d="M6.598 38.344a.723.723 0 0 1-.713.456H4.6C2.09 38.774.033 40.798 0 43.327v10.346c.033 2.529 2.09 4.553 4.6 4.527h1.285a.723.723 0 0 1 .713.457 42.314 42.314 0 0 0 5.342 12.489.552.552 0 0 1-.138.694l-.876.86a4.451 4.451 0 0 0-1.393 3.232 4.451 4.451 0 0 0 1.385 3.236l7.547 7.298a4.64 4.64 0 0 0 6.45.019l.921-.877c.25-.24.623-.29.927-.128a45.25 45.25 0 0 0 12.864 5.147c.285.062.49.312.497.604v1.242c.033 2.528 2.09 4.553 4.6 4.527h5.35A1.933 1.933 0 0 0 52 95.06c0-1.072-.862-1.94-1.926-1.94h-5.35a.713.713 0 0 1-.748-.647v-1.242a4.481 4.481 0 0 0-3.487-4.386 41.382 41.382 0 0 1-11.77-4.708 4.604 4.604 0 0 0-5.54.662l-.93.886a.81.81 0 0 1-1.108-.01l-7.565-7.315a.572.572 0 0 1-.191-.422.596.596 0 0 1 .211-.442l.883-.867a4.458 4.458 0 0 0 .706-5.573 38.444 38.444 0 0 1-4.85-11.337 4.532 4.532 0 0 0-4.45-3.399H4.6a.713.713 0 0 1-.748-.647V43.327a.713.713 0 0 1 .748-.647h1.285a4.533 4.533 0 0 0 4.45-3.398 38.434 38.434 0 0 1 4.848-11.333 4.454 4.454 0 0 0-.692-5.566l-.915-.899a.572.572 0 0 1-.191-.422.583.583 0 0 1 .2-.43l7.565-7.317a.817.817 0 0 1 1.12.02l.898.855a4.611 4.611 0 0 0 5.547.675 41.388 41.388 0 0 1 11.77-4.71 4.48 4.48 0 0 0 3.49-4.386V4.527a.713.713 0 0 1 .75-.647h5.35A1.933 1.933 0 0 0 52 1.94C52 .87 51.138 0 50.074 0h-5.35c-2.51-.026-4.567 1.999-4.6 4.527v1.242a.634.634 0 0 1-.5.605 45.254 45.254 0 0 0-12.864 5.148.795.795 0 0 1-.935-.14l-.89-.848a4.645 4.645 0 0 0-6.461-.009l-7.548 7.299a4.451 4.451 0 0 0-1.393 3.224 4.451 4.451 0 0 0 1.374 3.233l.907.891c.201.169.253.458.123.687a42.303 42.303 0 0 0-5.34 12.485z"/>
        <path fill="#FBAF19" d="M67.238 29.767l-.003-.003-.003-.003a26.485 26.485 0 0 0-37.464 0l-.003.003-.003.003a26.485 26.485 0 0 0 0 37.465l.003.004.003.003a26.322 26.322 0 0 0 18.732 7.76c.777 0 1.549-.038 2.314-.104a1.855 1.855 0 0 0 1.607-.182 26.303 26.303 0 0 0 14.81-7.474l.004-.003.003-.004a26.485 26.485 0 0 0 0-37.465zm-1.445 33.276l-1.496-1.497a1.945 1.945 0 1 0-2.75 2.75l1.496 1.497a22.376 22.376 0 0 1-9.68 4.778v-.941a1.945 1.945 0 0 0-3.89 0v1.432c-.325.014-.646.048-.973.048a22.426 22.426 0 0 1-14.543-5.317l1.496-1.497a1.945 1.945 0 1 0-2.75-2.75l-1.496 1.497a22.386 22.386 0 0 1-5.222-12.598h1.385a1.945 1.945 0 1 0 0-3.89h-1.385a22.38 22.38 0 0 1 5.222-12.598l1.496 1.497a1.945 1.945 0 1 0 2.75-2.75l-1.496-1.497a22.382 22.382 0 0 1 12.598-5.222v1.385a1.945 1.945 0 0 0 3.89 0v-1.385a22.382 22.382 0 0 1 12.598 5.222l-1.496 1.496a1.945 1.945 0 1 0 2.75 2.75l1.496-1.496a22.38 22.38 0 0 1 5.222 12.598H69.63a1.945 1.945 0 1 0 0 3.89h1.385a22.386 22.386 0 0 1-5.222 12.598z"/>
        <path fill="#ECEEF2" d="M48.5 14C29.446 14 14 29.67 14 49s15.446 35 34.5 35C67.554 84 83 68.33 83 49c-.021-19.32-15.455-34.978-34.5-35zm0 66.111c-16.937 0-30.667-13.929-30.667-31.111 0-17.182 13.73-31.111 30.667-31.111S79.167 31.818 79.167 49c-.02 17.174-13.738 31.092-30.667 31.111z"/>
        <path fill="#ECEEF2" d="M50 41.93V35.9c0-1.05-.896-1.9-2-1.9s-2 .85-2 1.9v6.03c-2.755.925-4.407 3.6-3.913 6.336C42.581 51 45.078 53 48 53s5.419-2 5.913-4.734c.494-2.736-1.158-5.411-3.913-6.336zm-2 7.265c-1.104 0-2-.85-2-1.9 0-1.049.896-1.899 2-1.899s2 .85 2 1.9c-.001 1.048-.896 1.898-2 1.899z"/>
    </g>
</svg>
