<svg xmlns="http://www.w3.org/2000/svg" width="30" height="30" viewBox="0 0 30 30">
    <g fill="none" fill-rule="nonzero">
        <path fill="#FBAF19" d="M27.463 20.62a3.357 3.357 0 0 0-2.396-.98c-1.599 0-3.055 1.026-3.624 2.554l-.233.623A24.551 24.551 0 0 1 7.184 8.79l.623-.233a3.905 3.905 0 0 0 2.469-2.836c.256-1.178-.078-2.368-.895-3.184L7.822.98C6.508-.335 4.109-.256 2.709 1.144c-2.6 2.6-3.421 6.458-2.044 9.601l.076.174A35.55 35.55 0 0 0 19.08 29.258l.177.078A7.96 7.96 0 0 0 22.47 30c2.337 0 4.664-.987 6.386-2.709 1.455-1.455 1.528-3.749.165-5.113l-1.558-1.558zm-.021 5.257c-1.983 1.982-5.035 2.655-7.381 1.628l-.177-.078A33.557 33.557 0 0 1 2.572 10.115l-.076-.174c-1.049-2.394-.395-5.36 1.627-7.383A1.857 1.857 0 0 1 5.417 2c.385 0 .737.14.99.393l1.559 1.558c.338.338.467.828.355 1.344a1.94 1.94 0 0 1-1.213 1.388l-1.556.58a1 1 0 0 0-.596 1.263c2.697 7.8 8.718 13.82 16.517 16.519a1 1 0 0 0 1.264-.597l.58-1.556a1.92 1.92 0 0 1 1.75-1.252c.268 0 .656.068.982.394l1.558 1.558c.584.585.51 1.61-.165 2.285z"/>
        <path fill="#DBDFE6" d="M15 2c7.169 0 13 5.832 13 13a1 1 0 0 0 2 0c0-8.271-6.729-15-15-15a1 1 0 0 0 0 2z"/>
        <path fill="#DBDFE6" d="M14.5 7.5c4.411 0 8 3.589 8 8a1 1 0 1 0 2 0c0-5.514-4.486-10-10-10a1 1 0 0 0 0 2z"/>
    </g>
</svg>
