<svg xmlns="http://www.w3.org/2000/svg" width="102" height="87" viewBox="0 0 102 87">
    <g fill="none" fill-rule="evenodd" transform="translate(1 1)">
        <g fill-rule="nonzero">
            <path fill="#FFAC00" stroke="#1B212C" stroke-width="1.1" d="M92.4 0c-4.343 0-7.92 3.577-7.92 7.92a7.86 7.86 0 0 0 1.568 4.703L70.66 34.609a7.76 7.76 0 0 0-2.02-.289c-3.407 0-6.318 2.235-7.426 5.28h-22.11c-1.108-3.045-4.019-5.28-7.425-5.28-4.343 0-7.92 3.577-7.92 7.92a7.86 7.86 0 0 0 1.567 4.703L9.942 68.929a7.762 7.762 0 0 0-2.021-.289C3.577 68.64 0 72.217 0 76.56s3.577 7.92 7.92 7.92 7.92-3.577 7.92-7.92c0-1.76-.58-3.381-1.567-4.702l15.345-21.945c.659.18 1.35.247 2.062.247 3.425 0 6.372-2.21 7.466-5.28h22.028c1.094 3.07 4.042 5.28 7.466 5.28 4.343 0 7.92-3.577 7.92-7.92 0-1.76-.58-3.381-1.567-4.703l15.345-21.944c.659.18 1.35.247 2.062.247 4.343 0 7.92-3.577 7.92-7.92S96.743 0 92.4 0z"/>
            <path fill="#1B212C" d="M92.4 1.92c3.385 0 6 2.615 6 6s-2.615 6-6 6-6-2.615-6-6 2.615-6 6-6zM31.68 37.24c2.82 0 5 2.179 5 5 0 2.82-2.18 5-5 5s-5-2.18-5-5c0-2.821 2.18-5 5-5zM68.64 36.24c3.385 0 6 2.615 6 6s-2.615 6-6 6-6-2.615-6-6 2.615-6 6-6zM7.92 71.56c2.82 0 5 2.18 5 5s-2.18 5-5 5-5-2.18-5-5 2.18-5 5-5z"/>
        </g>
        <circle cx="8" cy="76" r="6" stroke="#DADFE7" stroke-width="4"/>
        <circle cx="32" cy="42" r="6" stroke="#DADFE7" stroke-width="4"/>
        <circle cx="69" cy="42" r="6" stroke="#DADFE7" stroke-width="4"/>
        <circle cx="92" cy="8" r="6" stroke="#DADFE7" stroke-width="4"/>
    </g>
</svg>
