<svg xmlns="http://www.w3.org/2000/svg" xmlns:xlink="http://www.w3.org/1999/xlink" width="105" height="97" viewBox="0 0 105 97">
    <defs>
        <path id="a" d="M0 .026h104.327v46.272H0z"/>
    </defs>
    <g fill="none" fill-rule="evenodd">
        <path fill="#FBAF19" fill-rule="nonzero" d="M51.58 61.557c-.58 0-1.131-.247-1.518-.678-1.583-1.754-15.447-17.412-15.447-26.184.312-9.14 7.81-16.387 16.955-16.387s16.644 7.248 16.955 16.387c0 8.772-13.864 24.43-15.446 26.184a2.04 2.04 0 0 1-1.499.678zm0-39.738c-7.108.008-12.868 5.768-12.876 12.876 0 5.445 8.247 16.262 12.876 21.707 4.634-5.445 12.876-16.267 12.876-21.707-.008-7.108-5.768-12.868-12.876-12.876z"/>
        <path fill="#ECEEF2" fill-rule="nonzero" d="M51.58 43.64a9.303 9.303 0 1 1 9.303-9.304 9.337 9.337 0 0 1-9.303 9.303zm0-14.518a5.214 5.214 0 1 0 3.7 1.519 5.22 5.22 0 0 0-3.7-1.524v.005z"/>
        <g transform="translate(0 50.041)">
            <mask id="b" fill="#fff">
                <use xlink:href="#a"/>
            </mask>
            <path fill="#ECEEF2" d="M103.902 45.45a2.124 2.124 0 0 0 .34-1.869L91.95 1.551A2.12 2.12 0 0 0 89.915.027H71.08a2.12 2.12 0 1 0 0 4.243h17.244l11.05 37.785H4.952l11.05-37.786h16.644c1.17 0 2.122-.95 2.122-2.12A2.122 2.122 0 0 0 32.646.025H14.413c-.943 0-1.77.62-2.037 1.526L.085 43.582a2.125 2.125 0 0 0 .339 1.868c.4.533 1.029.848 1.698.848h100.083a2.12 2.12 0 0 0 1.697-.848" mask="url(#b)"/>
        </g>
        <path fill="#FBAF19" d="M21.927 73.111a17.297 17.297 0 0 0-1.944 3.065 2.123 2.123 0 0 0 3.798 1.894c.425-.853.917-1.629 1.459-2.306a2.122 2.122 0 0 0-3.313-2.653M56.28 70.644l-.34-.086a2.118 2.118 0 0 0-2.58 1.532 2.118 2.118 0 0 0 1.533 2.58l.338.086c2.069.528 4.21 1.074 6.25 1.545a2.125 2.125 0 0 0 2.546-1.59 2.12 2.12 0 0 0-1.589-2.543c-1.994-.461-4.016-.977-6.158-1.524M28.176 68.528a2.12 2.12 0 0 0-1.195 2.751 2.119 2.119 0 0 0 2.752 1.195c1.664-.656 3.583-1.006 5.868-1.07a2.12 2.12 0 0 0 2.063-2.18c-.032-1.17-.965-2.102-2.18-2.061-2.788.078-5.177.523-7.308 1.365M74.946 73.458c-1.624.267-3.619.242-6.098-.079a2.12 2.12 0 0 0-2.377 1.831 2.124 2.124 0 0 0 1.832 2.377c1.541.2 2.909.296 4.18.296 1.13 0 2.187-.08 3.149-.237a2.122 2.122 0 0 0 1.75-2.437 2.127 2.127 0 0 0-2.436-1.75M42.56 67.64a2.121 2.121 0 1 0-.607 4.2c1.878.272 3.987.675 6.447 1.236a2.124 2.124 0 0 0 2.541-1.6 2.121 2.121 0 0 0-1.598-2.538c-2.572-.586-4.79-1.01-6.784-1.298M80.418 68.882c-.268.86-.635 1.6-1.084 2.202a2.121 2.121 0 1 0 3.394 2.545c.74-.986 1.326-2.154 1.74-3.473a2.122 2.122 0 1 0-4.05-1.274"/>
        <path stroke="#FBAF19" stroke-width="1.5" d="M63.035 1c-.974 0-1.93.076-2.863.205a.57.57 0 1 0 .16 1.125 19.58 19.58 0 0 1 2.703-.187c10.763 0 19.477 8.716 19.477 19.492 0 .916-.073 1.826-.196 2.714a.572.572 0 0 0 1.133.152c.13-.934.205-1.89.205-2.866C83.654 10.24 74.414 1 63.035 1zm-1.124 5.429c-.58 0-1.155.03-1.72.09a.57.57 0 1 0 .124 1.133c.527-.055 1.055-.08 1.596-.08 8.39 0 15.18 6.796 15.18 15.197 0 .542-.026 1.07-.081 1.598a.572.572 0 1 0 1.132.116c.06-.567.09-1.132.09-1.714 0-9.018-7.313-16.34-16.32-16.34zm-1.114 5.429c-.201 0-.39.009-.571.017a.57.57 0 1 0 .053 1.134c.181-.008.352-.008.518-.008 6.01 0 10.87 4.866 10.87 10.884 0 .166-.008.336-.017.518a.572.572 0 1 0 1.142.053c.008-.18.017-.37.017-.571 0-6.635-5.385-12.027-12.012-12.027z"/>
    </g>
</svg>
