<svg xmlns="http://www.w3.org/2000/svg" width="16" height="12" viewBox="0 0 16 12">
    <path fill="#1C212B" fill-rule="evenodd" d="M8.22 0C8.995.005 11.7.027 13.6.174c.313.04.994.042 1.603.722.48.518.636 1.694.636 1.694s.16 1.38.16 2.76v1.295c0 1.381-.16 2.762-.16 2.762s-.156 1.175-.636 1.693c-.609.68-1.29.683-1.603.723C11.362 11.995 8 12 8 12s-4.16-.04-5.44-.172c-.356-.07-1.155-.05-1.765-.73C.316 10.582.16 9.407.16 9.407S0 8.026 0 6.644l.001-1.482C.014 3.847.16 2.589.16 2.589S.316 1.413.795.895C1.405.215 2.086.212 2.4.173 4.299.026 7.004.004 7.781 0zM6.347 3.42v4.793l4.322-2.389L6.348 3.42z"/>
</svg>
